<?xml version="1.0" encoding="UTF-8"?>
<svg width="52px" height="52px" viewBox="0 0 52 52" version="1.1" xmlns="http://www.w3.org/2000/svg" xmlns:xlink="http://www.w3.org/1999/xlink">
    <!-- Generator: Sketch 57.1 (83088) - https://sketch.com -->
    <title>monitor</title>
    <desc>Created with Sketch.</desc>
    <g id="Page-1" stroke="none" stroke-width="1" fill="none" fill-rule="evenodd">
        <g id="Edubox" transform="translate(-703.000000, -1484.000000)" fill="#282828" fill-rule="nonzero">
            <g id="monitor" transform="translate(703.000000, 1484.000000)">
                <path d="M46.5834582,9 L44.4168211,9 L44.4168211,11.1764346 L46.5834582,11.1764346 C48.3783757,11.1764346 49.8334645,12.6381033 49.8334645,14.4411375 L49.8334645,40.5587605 C49.8334645,42.3617947 48.3783757,43.8234634 46.5834582,43.8234634 L5.41664339,43.8234634 C3.62172582,43.8234634 2.16663704,42.3617947 2.16663704,40.5587605 L2.16663704,14.4411375 C2.16663704,12.6381033 3.62172582,11.1764346 5.41664339,11.1764346 L7.58328044,11.1764346 L7.58328044,9 L5.41664339,9 C2.42663755,9.00367279 0.00355469444,11.4376108 0,14.4412395 L0,40.5588625 C0.00355469444,43.5623892 2.42663755,45.9964292 5.41664339,46 L46.5833566,46 C49.573464,45.9964292 51.9964453,43.5623892 52,40.5588625 L52,14.4412395 C51.9965469,11.4376108 49.573464,9.00367279 46.5834582,9 Z" id="Path"></path>
                <path d="M16.5019951,45.0000937 L16.5019951,48.167013 C14.9562857,48.5407884 13.9264764,49.7087077 14.0041072,51 L16.5019951,51 C16.4947355,50.9405634 16.4947355,50.8806581 16.5019951,50.8212215 C16.5635846,50.3182607 17.122808,49.9505789 17.7509975,49.9999844 C18.4407766,49.9999844 19,49.5522414 19,48.9999688 L19,45 L16.5019951,45 L16.5019951,45.0000937 Z" id="Path"></path>
                <path d="M35.4978938,48.1670182 L35.4978938,45 L33,45 L33,49 C33.0078451,49.5449773 33.5534873,49.9871092 34.2340179,50.0000469 C34.3100097,49.993578 34.386704,49.993203 34.4628129,49.9989219 C35.0939312,50.0464539 35.5573758,50.4946796 35.4980109,51 L37.9959047,51 C38.0734187,49.7086673 37.0436069,48.5408053 35.4978938,48.1670182 Z" id="Path"></path>
                <rect id="Rectangle" x="12" y="50" width="28" height="2"></rect>
                <rect id="Rectangle" x="5" y="38" width="43" height="2"></rect>
                <path d="M16.6984769,0.292984713 C16.2962208,-0.097583432 16.5401046,-0.0974896807 16.1377519,0.292984713 L7.58328044,9 L9.16662717,10 L14.9396568,3.67800685 L14.9396568,6.99995664 C14.9396568,7.55224587 14.4783902,8.00000235 13.9094368,8.00000235 L10.6497586,8.00000235 L8.79480942,10 L13.9094368,10 C15.6162969,10 17,8.65682434 17,6.99995664 L17,1.8370465 C17,1.57182391 16.8915405,0.480393671 16.6984769,0.292984713 Z" id="Path"></path>
                <path d="M42.7499069,0 L16.7499746,0 C16.462655,0 16.1872183,0.114020174 15.9840938,0.316722705 L7.31738199,8.96543162 C7.11415595,9.16813415 7,9.44310013 7,9.72972151 L7,38.918886 C7,39.5159464 7.48506124,40 8.08336437,40 L44.9166356,40 C45.5149388,40 46,39.5159464 46,38.918886 L46,3.2432405 C46,1.45205958 44.5448163,0 42.7499069,0 Z M43.8332713,37.8377721 L9.16662717,37.8377721 L9.16662717,10.1772887 L17.1984734,2.16212655 L42.7499069,2.16212655 C43.34821,2.16212655 43.8332713,2.6461802 43.8332713,3.2432405 L43.8332713,37.8377721 Z" id="Shape"></path>
                <rect id="Rectangle" x="22" y="15" width="18" height="2"></rect>
                <rect id="Rectangle" x="22" y="23" width="18" height="2"></rect>
                <rect id="Rectangle" x="22" y="31" width="18" height="2"></rect>
                <circle id="Oval" cx="16.5" cy="16.5" r="2.5"></circle>
                <circle id="Oval" cx="16.5" cy="24.5" r="2.5"></circle>
                <circle id="Oval" cx="16.5" cy="32.5" r="2.5"></circle>
                <rect id="Rectangle" x="31" y="4" width="8" height="2"></rect>
                <rect id="Rectangle" x="27" y="4" width="2" height="2"></rect>
            </g>
        </g>
    </g>
</svg>