<?xml version="1.0" encoding="UTF-8"?>
<svg width="45px" height="45px" viewBox="0 0 45 45" version="1.1" xmlns="http://www.w3.org/2000/svg" xmlns:xlink="http://www.w3.org/1999/xlink">
    <!-- Generator: Sketch 57.1 (83088) - https://sketch.com -->
    <title>monitor</title>
    <desc>Created with Sketch.</desc>
    <g id="Page-1" stroke="none" stroke-width="1" fill="none" fill-rule="evenodd">
        <g id="Edubox" transform="translate(-703.000000, -1484.000000)" fill="#282828" fill-rule="nonzero">
            <g id="monitor" transform="translate(703.000000, 1484.000000)">
                <path d="M40.312608,7.78846154 L38.4376337,7.78846154 L38.4376337,9.67191454 L40.312608,9.67191454 C41.8659021,9.67191454 43.1251135,10.9368201 43.1251135,12.4971382 L43.1251135,35.0989274 C43.1251135,36.6592454 41.8659021,37.924151 40.312608,37.924151 L4.68747986,37.924151 C3.13418581,37.924151 1.87497437,36.6592454 1.87497437,35.0989274 L1.87497437,12.4971382 C1.87497437,10.9368201 3.13418581,9.67191454 4.68747986,9.67191454 L6.56245422,9.67191454 L6.56245422,7.78846154 L4.68747986,7.78846154 C2.0999748,7.79163992 0.00307617788,9.89793243 0,12.4972265 L0,35.0990157 C0.00307617788,37.6982214 2.0999748,39.8046022 4.68747986,39.8076923 L40.3125201,39.8076923 C42.9001131,39.8046022 44.9969238,37.6982214 45,35.0990157 L45,12.4972265 C44.9970117,9.89793243 42.9001131,7.79163992 40.312608,7.78846154 Z" id="Path"></path>
                <path d="M14.2805727,38.9423888 L14.2805727,41.682992 C12.9429396,42.0064515 12.0517584,43.0171509 12.118939,44.1346154 L14.2805727,44.1346154 C14.2742903,44.0831799 14.2742903,44.0313388 14.2805727,43.9799033 C14.3338713,43.5446486 14.8178146,43.2264625 15.3614402,43.2692172 C15.9583644,43.2692172 16.4423077,42.8817473 16.4423077,42.4038191 L16.4423077,38.9423077 L14.2805727,38.9423077 L14.2805727,38.9423888 Z" id="Path"></path>
                <path d="M30.7193312,41.6829965 L30.7193312,38.9423077 L28.5576923,38.9423077 L28.5576923,42.4038462 C28.5644813,42.8754611 29.0366717,43.2580752 29.6255924,43.2692713 C29.6913545,43.2636733 29.7577246,43.2633488 29.8235881,43.2682978 C30.3697482,43.3094312 30.770806,43.6973189 30.7194325,44.1346154 L32.8810714,44.1346154 C32.9481508,43.017116 32.0569675,42.0064661 30.7193312,41.6829965 Z" id="Path"></path>
                <rect id="Rectangle" x="10.3846154" y="43.2692308" width="24.2307692" height="1.73076923"></rect>
                <rect id="Rectangle" x="4.32692308" y="32.8846154" width="37.2115385" height="1.73076923"></rect>
                <path d="M14.450605,0.253544463 C14.1024988,-0.0844472008 14.313552,-0.0843660698 13.9653622,0.253544463 L6.56245422,7.78846154 L7.93265813,8.65384615 L12.9285491,3.18289054 L12.9285491,6.05765479 C12.9285491,6.53559739 12.5293761,6.92307895 12.0370127,6.92307895 L9.21613723,6.92307895 L7.61089277,8.65384615 L12.0370127,8.65384615 C13.5141031,8.65384615 14.7115385,7.4914826 14.7115385,6.05765479 L14.7115385,1.58975178 C14.7115385,1.36023223 14.6176793,0.415725292 14.450605,0.253544463 Z" id="Path"></path>
                <path d="M36.9951117,0 L14.4951703,0 C14.2465284,0 14.0081697,0.0986713044 13.8323889,0.274086957 L6.3323498,7.75854659 C6.15648111,7.93396224 6.05769231,8.17191358 6.05769231,8.41995131 L6.05769231,33.6798052 C6.05769231,34.196492 6.47745684,34.6153846 6.99521916,34.6153846 L38.8701655,34.6153846 C39.3879278,34.6153846 39.8076923,34.196492 39.8076923,33.6798052 L39.8076923,2.80665044 C39.8076923,1.25659002 38.5483987,0 36.9951117,0 Z M37.9326386,32.7442259 L7.93265813,32.7442259 L7.93265813,8.80726907 L14.8832943,1.87107105 L36.9951117,1.87107105 C37.5128741,1.87107105 37.9326386,2.28996363 37.9326386,2.80665044 L37.9326386,32.7442259 Z" id="Shape"></path>
                <rect id="Rectangle" x="19.0384615" y="12.9807692" width="15.5769231" height="1.73076923"></rect>
                <rect id="Rectangle" x="19.0384615" y="19.9038462" width="15.5769231" height="1.73076923"></rect>
                <rect id="Rectangle" x="19.0384615" y="26.8269231" width="15.5769231" height="1.73076923"></rect>
                <circle id="Oval" cx="14.2788462" cy="14.2788462" r="2.16346154"></circle>
                <circle id="Oval" cx="14.2788462" cy="21.2019231" r="2.16346154"></circle>
                <circle id="Oval" cx="14.2788462" cy="28.125" r="2.16346154"></circle>
                <rect id="Rectangle" x="26.8269231" y="3.46153846" width="6.92307692" height="1.73076923"></rect>
                <rect id="Rectangle" x="23.3653846" y="3.46153846" width="1.73076923" height="1.73076923"></rect>
            </g>
        </g>
    </g>
</svg>