<?xml version="1.0" encoding="UTF-8"?>
<svg width="52px" height="52px" viewBox="0 0 52 52" version="1.1" xmlns="http://www.w3.org/2000/svg" xmlns:xlink="http://www.w3.org/1999/xlink">
    <!-- Generator: Sketch 57.1 (83088) - https://sketch.com -->
    <title>sketch</title>
    <desc>Created with Sketch.</desc>
    <g id="Page-1" stroke="none" stroke-width="1" fill="none" fill-rule="evenodd">
        <g id="Edubox" transform="translate(-472.000000, -1484.000000)" fill="#282828" fill-rule="nonzero">
            <g id="sketch" transform="translate(472.000000, 1484.000000)">
                <path d="M7.22222222,9 C5.44264931,9 4,10.4652655 4,12.2727366 L4,21 L6.14811458,21 L6.14811458,12.2727366 C6.14811458,11.6702462 6.62903125,11.1817903 7.22222222,11.1817903 L33,11.1817903 L33,9 L7.22222222,9 Z" id="Path"></path>
                <path d="M7.23076146,40.8461927 C6.63599847,40.8461927 6.15380732,40.3640015 6.15380732,39.7692385 L6.15380732,29 L4,29 L4,39.7692385 C4,41.5535275 5.44647248,43 7.23076146,43 L18,43 L18,40.8461927 L7.23076146,40.8461927 L7.23076146,40.8461927 Z" id="Path"></path>
                <path d="M34.6797791,43.8832599 L8.11658551,17.3202317 C7.68950473,16.8932561 6.99715194,16.8932561 6.56996863,17.3202317 L0.320233675,23.5700303 C-0.106744558,23.9971084 -0.106744558,24.6894569 0.320233675,25.1166375 L26.8834273,51.6795632 C27.0885081,51.8847453 27.3667002,52 27.6566845,52 C27.9467713,52 28.2248608,51.8846428 28.4299416,51.6795632 L34.6796766,45.4298672 C35.1067574,45.0026865 35.1067574,44.3103381 34.6797791,43.8832599 Z M27.6566845,49.3597036 L2.64010773,24.3432826 L7.34332834,19.6400913 L32.3599051,44.6566148 L27.6566845,49.3597036 Z" id="Shape"></path>
                <path d="M47.5789201,41 L31,41 L31,43.2499736 L43.1578402,43.2499736 L43.1578402,48.8749604 C43.1578402,49.4962793 43.652721,50 44.2631361,50 L47.5789201,50 C50.0205806,50 52,47.9853281 52,45.4999473 C52,43.0146719 50.0205806,41 47.5789201,41 Z M47.5789201,47.7500264 L45.368432,47.7500264 L45.368432,43.2499736 L47.5789201,43.2499736 C48.7997503,43.2499736 49.7894082,44.2573096 49.7894082,45.4999473 C49.7894082,46.7426904 48.7997503,47.7500264 47.5789201,47.7500264 Z" id="Shape"></path>
                <path d="M47.5555787,9 L42,9 L42,11.1764406 L47.5555787,11.1764406 C48.7828832,11.1764406 49.7777894,12.1508551 49.7777894,13.3528812 L49.7777894,46 L52,46 L52,13.3528812 C52.0001042,10.948829 50.0101876,9 47.5555787,9 Z" id="Path"></path>
                <polygon id="Rectangle" transform="translate(18.958443, 33.025962) rotate(-45.000000) translate(-18.958443, -33.025962) " points="16.660156 31.9426564 21.2567291 31.9426564 21.2567291 34.1092684 16.660156 34.1092684"></polygon>
                <polygon id="Rectangle" transform="translate(14.625241, 28.692615) rotate(-45.000000) translate(-14.625241, -28.692615) " points="12.3269549 27.6093088 16.923528 27.6093088 16.923528 29.7759208 12.3269549 29.7759208"></polygon>
                <polygon id="Rectangle" transform="translate(23.289434, 37.359326) rotate(-45.000000) translate(-23.289434, -37.359326) " points="20.9911475 36.2760199 25.5877206 36.2760199 25.5877206 38.4426319 20.9911475 38.4426319"></polygon>
                <polygon id="Rectangle" transform="translate(27.624706, 41.694837) rotate(-45.000000) translate(-27.624706, -41.694837) " points="25.3264195 40.6115315 29.9229926 40.6115315 29.9229926 42.7781435 25.3264195 42.7781435"></polygon>
                <polygon id="Rectangle" transform="translate(10.288931, 24.359280) rotate(-45.000000) translate(-10.288931, -24.359280) " points="7.99064475 23.2759741 12.5872179 23.2759741 12.5872179 25.4425862 7.99064475 25.4425862"></polygon>
                <path d="M47.0521828,2.43228662 L45.5393698,0.917607969 C44.2593999,-0.305869323 42.2449841,-0.305869323 40.9650142,0.917607969 L24.3204799,17.5837998 C23.8931734,18.0117651 23.8931734,18.7055519 24.3204799,19.1336199 L28.8598424,23.6788889 C29.0645678,23.8852165 29.3432817,24.0008134 29.6336941,24 C29.924004,24 30.2023074,23.8843945 30.4075459,23.6788889 L47.0521828,7.01259432 C47.0526959,7.01208056 47.053209,7.01156679 47.0537221,7.01105303 C48.3160414,5.74626912 48.3153231,3.69624851 47.0521828,2.43228662 Z M45.5055055,5.46174669 L29.6336941,21.3541074 L26.6421378,18.3586585 L42.5139491,2.46732532 C42.9272995,2.07182989 43.578316,2.07182989 43.9916663,2.46732532 L45.5055055,3.98097645 C45.5056081,3.98118195 45.5058133,3.98128471 45.5060186,3.98149021 C45.9140327,4.3903435 45.9138275,5.0530989 45.5055055,5.46174669 Z" id="Shape"></path>
                <path d="M29.3278742,21.730922 L24.7444558,23.2604876 L26.2747841,18.6718904 L24.2570127,18 L22.054459,24.6031738 C22.0184185,24.7114405 22,24.8247822 22,24.9388204 C22.0000996,25.5250328 22.475695,26.0001923 23.0621998,26 C23.1746024,26.0003913 23.2864076,25.9831761 23.3935336,25.9490442 L30,23.7475883 L29.3278742,21.730922 Z" id="Path"></path>
                <polygon id="Rectangle" transform="translate(40.720318, 6.929127) rotate(-45.000000) translate(-40.720318, -6.929127) " points="39.6370122 3.75228228 41.8036242 3.75228228 41.8036242 10.1059713 39.6370122 10.1059713"></polygon>
                <rect id="Rectangle" x="23" y="24" width="16" height="2"></rect>
                <rect id="Rectangle" x="41" y="24" width="2" height="2"></rect>
                <rect id="Rectangle" x="46" y="24" width="2" height="2"></rect>
            </g>
        </g>
    </g>
</svg>