<?xml version="1.0" encoding="UTF-8"?>
<svg width="45px" height="45px" viewBox="0 0 45 45" version="1.1" xmlns="http://www.w3.org/2000/svg" xmlns:xlink="http://www.w3.org/1999/xlink">
    <!-- Generator: Sketch 57.1 (83088) - https://sketch.com -->
    <title>sketch</title>
    <desc>Created with Sketch.</desc>
    <g id="Page-1" stroke="none" stroke-width="1" fill="none" fill-rule="evenodd">
        <g id="Edubox" transform="translate(-472.000000, -1484.000000)" fill="#282828" fill-rule="nonzero">
            <g id="sketch" transform="translate(472.000000, 1484.000000)">
                <path d="M6.77777778,8 C5.24366319,8 4,9.22105461 4,10.7272805 L4,18 L5.85182292,18 L5.85182292,10.7272805 C5.85182292,10.2252052 6.26640625,9.81815857 6.77777778,9.81815857 L29,9.81815857 L29,8 L6.77777778,8 Z" id="Path"></path>
                <path d="M6.76922411,35.1538794 C6.25942726,35.1538794 5.84612056,34.7405727 5.84612056,34.2307759 L5.84612056,25 L4,25 L4,34.2307759 C4,35.7601664 5.23983356,37 6.76922411,37 L16,37 L16,35.1538794 L6.76922411,35.1538794 L6.76922411,35.1538794 Z" id="Path"></path>
                <path d="M29.725525,38.0427942 L6.95707329,15.2744843 C6.59100406,14.9085052 5.99755881,14.9085052 5.63140168,15.2744843 L0.274486007,20.6314545 C-0.0914953357,20.9975215 -0.0914953357,21.590963 0.274486007,21.9571179 L23.0429377,44.7253399 C23.2187212,44.9012103 23.4571716,45 23.7057296,45 C23.9543754,45 24.1927379,44.9011224 24.3685214,44.7253399 L29.7254371,39.3684576 C30.0915063,39.0023028 30.0915063,38.4088612 29.725525,38.0427942 Z M23.7057296,42.7368888 L2.26294948,21.2942422 L6.29428143,17.2629354 L27.7370615,38.7056699 L23.7057296,42.7368888 Z" id="Shape"></path>
                <path d="M41.2105029,35 L27,35 L27,36.9999766 L37.4210059,36.9999766 L37.4210059,41.9999648 C37.4210059,42.5522483 37.8451894,43 38.3684024,43 L41.2105029,43 C43.3033548,43 45,41.2091805 45,38.9999531 C45,36.7908195 43.3033548,35 41.2105029,35 Z M41.2105029,41.0000234 L39.3157988,41.0000234 L39.3157988,36.9999766 L41.2105029,36.9999766 C42.2569289,36.9999766 43.1052071,37.8953863 43.1052071,38.9999531 C43.1052071,40.1046137 42.2569289,41.0000234 41.2105029,41.0000234 Z" id="Shape"></path>
                <path d="M41.0000208,8 L36,8 L36,9.88232699 L41.0000208,9.88232699 C42.1045948,9.88232699 43.0000104,10.7250638 43.0000104,11.764654 L43.0000104,40 L45,40 L45,11.764654 C45.0000938,9.68547369 43.2091688,8 41.0000208,8 Z" id="Path"></path>
                <polygon id="Rectangle" transform="translate(16.406345, 28.580160) rotate(-45.000000) translate(-16.406345, -28.580160) " points="14.4174427 27.6426834 18.3952463 27.6426834 18.3952463 29.5176361 14.4174427 29.5176361"></polygon>
                <polygon id="Rectangle" transform="translate(12.656459, 24.830147) rotate(-45.000000) translate(-12.656459, -24.830147) " points="10.6675572 23.8926711 14.6453608 23.8926711 14.6453608 25.7676238 10.6675572 25.7676238"></polygon>
                <polygon id="Rectangle" transform="translate(20.154318, 32.330186) rotate(-45.000000) translate(-20.154318, -32.330186) " points="18.1654161 31.3927095 22.1432197 31.3927095 22.1432197 33.2676622 18.1654161 33.2676622"></polygon>
                <polygon id="Rectangle" transform="translate(23.905996, 36.082071) rotate(-45.000000) translate(-23.905996, -36.082071) " points="21.9170938 35.1445945 25.8948974 35.1445945 25.8948974 37.0195472 21.9170938 37.0195472"></polygon>
                <polygon id="Rectangle" transform="translate(8.903883, 21.080146) rotate(-45.000000) translate(-8.903883, -21.080146) " points="6.91498103 20.1426699 10.8927847 20.1426699 10.8927847 22.0176226 6.91498103 22.0176226"></polygon>
                <path d="M41.1706599,2.12825042 L39.8469486,0.80290683 C38.7269749,-0.26763561 36.9643611,-0.26763561 35.8443874,0.80290683 L21.2804199,15.3858221 C20.9065267,15.7602917 20.9065267,16.367355 21.2804199,16.7419145 L25.2523621,20.7190241 C25.4314968,20.8995607 25.6753715,21.000708 25.9294824,21 C26.1835035,21 26.427019,20.8988414 26.6066026,20.7190241 L41.1706599,6.13601894 C41.1711089,6.1355694 41.1715578,6.13511985 41.1720068,6.13467031 C42.2765363,5.02798459 42.2759077,3.23421687 41.1706599,2.12825042 Z M39.8173173,4.7790275 L25.9294824,18.6848406 L23.3118706,16.0638233 L37.1997055,2.15890927 C37.561387,1.81285083 38.1310265,1.81285083 38.492708,2.15890927 L39.8173173,3.48335377 C39.8174071,3.48353359 39.8175867,3.4836235 39.8177662,3.48380332 C40.1747786,3.84154988 40.174599,4.42146075 39.8173173,4.7790275 Z" id="Shape"></path>
                <path d="M25.4118899,19.2645568 L21.4013988,20.6029267 L22.7404361,16.5879041 L20.9748861,16 L19.0476516,21.7777771 C19.0161162,21.8725104 19,21.9716844 19,22.0714679 C19.0000871,22.5844037 19.4162332,23.0001682 19.9294248,23 C20.0277771,23.0003424 20.1256067,22.9852791 20.2193419,22.9554137 L26,21.0291397 L25.4118899,19.2645568 Z" id="Path"></path>
                <polygon id="Rectangle" transform="translate(35.238737, 5.996360) rotate(-45.000000) translate(-35.238737, -5.996360) " points="34.3012606 3.24716736 36.1762133 3.24716736 36.1762133 8.74555213 34.3012606 8.74555213"></polygon>
                <rect id="Rectangle" x="20" y="21" width="14" height="2"></rect>
                <rect id="Rectangle" x="35" y="21" width="2" height="2"></rect>
                <rect id="Rectangle" x="40" y="21" width="2" height="2"></rect>
            </g>
        </g>
    </g>
</svg>