<svg width="39" height="30" viewBox="0 0 39 30" fill="none" xmlns="http://www.w3.org/2000/svg">
<g clip-path="url(#clip0)">
<path d="M0.73605 10.2135C0.440121 9.97615 2.28882e-05 10.1982 2.28882e-05 10.5733V26.2304C2.28882e-05 28.2593 1.63142 29.9054 3.64221 29.9054H35.2078C37.2186 29.9054 38.85 28.2593 38.85 26.2304V10.581C38.85 10.1982 38.4175 9.98381 38.114 10.2212C36.4143 11.5533 34.1607 13.2454 26.4211 18.9187C24.82 20.0977 22.1187 22.5783 19.425 22.563C16.7161 22.586 13.9617 20.0518 12.4214 18.9187C4.68175 13.2454 2.43574 11.5457 0.73605 10.2135ZM19.425 20.1054C17.6646 20.136 15.1303 17.8697 13.8555 16.9357C3.78638 9.56272 3.02 8.91959 0.698109 7.08209C0.258011 6.73756 2.28882e-05 6.20162 2.28882e-05 5.63506V4.18037C2.28882e-05 2.15146 1.63142 0.505371 3.64221 0.505371H35.2078C37.2186 0.505371 38.85 2.15146 38.85 4.18037V5.63506C38.85 6.20162 38.592 6.7299 38.1519 7.08209C35.83 8.91193 35.0637 9.56272 24.9945 16.9357C23.7198 17.8697 21.1854 20.136 19.425 20.1054Z" fill="#4B4B4B"/>
</g>
<defs>
<clipPath id="clip0">
<rect width="38.85" height="29.4" fill="white" transform="matrix(-1 0 0 1 38.85 0.505371)"/>
</clipPath>
</defs>
</svg>
