<svg width="32" height="24" viewBox="0 0 32 24" fill="none" xmlns="http://www.w3.org/2000/svg">
<path d="M0.606251 7.925C0.362501 7.73125 0 7.9125 0 8.21875V21C0 22.6562 1.34375 24 3 24H29C30.6562 24 32 22.6562 32 21V8.225C32 7.9125 31.6438 7.7375 31.3938 7.93125C29.9938 9.01875 28.1375 10.4 21.7625 15.0312C20.4437 15.9937 18.2188 18.0188 16 18.0063C13.7687 18.025 11.5 15.9563 10.2313 15.0312C3.85625 10.4 2.00625 9.0125 0.606251 7.925ZM16 16C14.55 16.025 12.4625 14.175 11.4125 13.4125C3.11875 7.39375 2.4875 6.86875 0.575001 5.36875C0.212501 5.0875 0 4.65 0 4.1875V3C0 1.34375 1.34375 0 3 0H29C30.6562 0 32 1.34375 32 3V4.1875C32 4.65 31.7875 5.08125 31.425 5.36875C29.5125 6.8625 28.8812 7.39375 20.5875 13.4125C19.5375 14.175 17.45 16.025 16 16Z" fill="#FFFDF5"/>
</svg>
