<svg width="39" height="29" viewBox="0 0 39 29" fill="none" xmlns="http://www.w3.org/2000/svg">
<path d="M38.95 25.7778V3.22222C38.95 1.44259 37.532 0 35.7828 0H4.11013C2.36101 0 0.942871 1.44259 0.942871 3.22222V25.7778C0.942871 27.5574 2.36101 29 4.11013 29H35.7828C37.532 29 38.95 27.5574 38.95 25.7778ZM35.7828 23.4895L26.942 14.4953L35.7828 5.50066V23.4895ZM33.5435 3.22222L21.067 15.916C20.4507 16.5453 19.4448 16.5453 18.8268 15.916L6.34955 3.22222H33.5435ZM4.11013 5.50033L12.9517 14.4953L4.11013 23.4903V5.50033ZM6.34353 25.7778L15.1997 16.7821L16.5876 18.1941C17.4845 19.1068 18.6776 19.6103 19.9465 19.6103C21.2162 19.6103 22.4085 19.1068 23.3063 18.1941L24.7011 16.7751L33.5503 25.7778H6.34353Z" fill="#4349FF"/>
</svg>
