<svg width="30" height="30" viewBox="0 0 30 30" fill="none" xmlns="http://www.w3.org/2000/svg">
<path d="M26.85 0.505371H3.75002C2.01096 0.505371 0.600021 1.91631 0.600021 3.65537V26.7554C0.600021 28.4944 2.01096 29.9054 3.75002 29.9054H26.85C28.5891 29.9054 30 28.4944 30 26.7554V3.65537C30 1.91631 28.5891 0.505371 26.85 0.505371ZM18.7978 25.6857C18.2466 25.7841 18.0431 25.4429 18.0431 25.1607C18.0431 24.8063 18.0563 22.9951 18.0563 21.5316C18.0563 20.5079 17.715 19.8582 17.3147 19.5169C19.7428 19.2479 22.3022 18.9132 22.3022 14.7197C22.3022 13.5254 21.8756 12.9282 21.18 12.1604C21.2916 11.8782 21.6656 10.7166 21.0685 9.20725C20.1563 8.92506 18.0694 10.3819 18.0694 10.3819C17.2031 10.1391 16.2647 10.0144 15.3394 10.0144C14.4141 10.0144 13.4756 10.1391 12.6094 10.3819C12.6094 10.3819 10.5225 8.92506 9.61033 9.20725C9.01315 10.7101 9.38065 11.8716 9.49877 12.1604C8.80315 12.9282 8.47502 13.5254 8.47502 14.7197C8.47502 18.8935 10.9228 19.2479 13.351 19.5169C13.036 19.7991 12.7538 20.2847 12.6553 20.9804C12.0319 21.2626 10.4372 21.7482 9.48565 20.0682C8.88846 19.0313 7.81221 18.946 7.81221 18.946C6.74908 18.9329 7.74002 19.6154 7.74002 19.6154C8.44877 19.9435 8.94752 21.2035 8.94752 21.2035C9.58408 23.1526 12.6291 22.4963 12.6291 22.4963C12.6291 23.4085 12.6422 24.8916 12.6422 25.1607C12.6422 25.4429 12.4453 25.7841 11.8875 25.6857C7.55627 24.2354 4.5244 20.1141 4.5244 15.2972C4.5244 9.27287 9.13127 4.69881 15.1556 4.69881C21.18 4.69881 26.0625 9.27287 26.0625 15.2972C26.0691 20.1141 23.1291 24.2419 18.7978 25.6857ZM12.36 21.676C12.2353 21.7022 12.1172 21.6497 12.1041 21.5644C12.091 21.466 12.1763 21.3807 12.301 21.3544C12.4256 21.3413 12.5438 21.3938 12.5569 21.4791C12.5766 21.5644 12.4913 21.6497 12.36 21.676ZM11.7366 21.6169C11.7366 21.7022 11.6381 21.7744 11.5069 21.7744C11.3625 21.7876 11.2641 21.7154 11.2641 21.6169C11.2641 21.5316 11.3625 21.4594 11.4938 21.4594C11.6185 21.4463 11.7366 21.5185 11.7366 21.6169ZM10.8375 21.5447C10.8113 21.6301 10.68 21.6694 10.5685 21.6301C10.4438 21.6038 10.3585 21.5054 10.3847 21.4201C10.411 21.3347 10.5422 21.2954 10.6538 21.3216C10.785 21.361 10.8703 21.4594 10.8375 21.5447ZM10.0303 21.1904C9.97127 21.2626 9.84658 21.2494 9.74815 21.151C9.64971 21.0657 9.62346 20.941 9.68908 20.8819C9.74815 20.8097 9.87283 20.8229 9.97127 20.9213C10.0566 21.0066 10.0894 21.1379 10.0303 21.1904ZM9.43315 20.5932C9.37408 20.6326 9.26252 20.5932 9.19033 20.4947C9.11815 20.3963 9.11815 20.2847 9.19033 20.2388C9.26252 20.1797 9.37408 20.2257 9.43315 20.3241C9.50533 20.4226 9.50533 20.5407 9.43315 20.5932ZM9.00658 19.9566C8.94752 20.0157 8.84908 19.9829 8.7769 19.9172C8.70471 19.8319 8.69158 19.7335 8.75065 19.6876C8.80971 19.6285 8.90815 19.6613 8.98033 19.7269C9.05252 19.8122 9.06565 19.9107 9.00658 19.9566ZM8.5669 19.471C8.54065 19.5301 8.45533 19.5432 8.38315 19.4972C8.29783 19.4579 8.25846 19.3857 8.28471 19.3266C8.31096 19.2872 8.38315 19.2676 8.46846 19.3004C8.55377 19.3463 8.59315 19.4185 8.5669 19.471Z" fill="#4B4B4B"/>
</svg>
