<svg width="30" height="30" viewBox="0 0 30 30" fill="none" xmlns="http://www.w3.org/2000/svg">
<g clip-path="url(#clip0)">
<path d="M26.4928 0.505371H3.70712C1.99172 0.505371 0.599976 1.89711 0.599976 3.61251V26.3982C0.599976 28.1136 1.99172 29.5054 3.70712 29.5054H26.4928C28.2082 29.5054 29.6 28.1136 29.6 26.3982V3.61251C29.6 1.89711 28.2082 0.505371 26.4928 0.505371ZM18.5502 25.3431C18.0064 25.4402 17.8058 25.1036 17.8058 24.8252C17.8058 24.4757 17.8187 22.6891 17.8187 21.2455C17.8187 20.2357 17.4821 19.5949 17.0873 19.2583C19.4823 18.9929 22.0069 18.6627 22.0069 14.5264C22.0069 13.3482 21.5861 12.7592 20.9 12.0018C21.01 11.7235 21.379 10.5777 20.7899 9.08885C19.8902 8.81051 17.8317 10.2476 17.8317 10.2476C16.9772 10.008 16.0515 9.88506 15.1388 9.88506C14.2261 9.88506 13.3004 10.008 12.446 10.2476C12.446 10.2476 10.3875 8.81051 9.4877 9.08885C8.89864 10.5712 9.26114 11.717 9.37765 12.0018C8.69149 12.7592 8.36783 13.3482 8.36783 14.5264C8.36783 18.6433 10.7823 18.9929 13.1774 19.2583C12.8667 19.5366 12.5884 20.0156 12.4913 20.7018C11.8763 20.9801 10.3033 21.4592 9.36471 19.802C8.77564 18.7793 7.71404 18.6951 7.71404 18.6951C6.66538 18.6822 7.64283 19.3554 7.64283 19.3554C8.34194 19.679 8.8339 20.9219 8.8339 20.9219C9.46181 22.8444 12.4654 22.1971 12.4654 22.1971C12.4654 23.0969 12.4783 24.5598 12.4783 24.8252C12.4783 25.1036 12.2841 25.4402 11.7339 25.3431C7.46158 23.9125 4.47096 19.8473 4.47096 15.096C4.47096 9.15358 9.01515 4.64176 14.9576 4.64176C20.9 4.64176 25.716 9.15358 25.716 15.096C25.7225 19.8473 22.8225 23.919 18.5502 25.3431ZM12.2 21.388C12.077 21.4139 11.9605 21.3621 11.9475 21.2779C11.9346 21.1808 12.0187 21.0967 12.1417 21.0708C12.2647 21.0578 12.3812 21.1096 12.3942 21.1938C12.4136 21.2779 12.3294 21.3621 12.2 21.388ZM11.585 21.3297C11.585 21.4139 11.4879 21.4851 11.3585 21.4851C11.216 21.498 11.1189 21.4268 11.1189 21.3297C11.1189 21.2456 11.216 21.1743 11.3455 21.1743C11.4685 21.1614 11.585 21.2326 11.585 21.3297ZM10.6982 21.2585C10.6723 21.3426 10.5428 21.3815 10.4328 21.3426C10.3098 21.3168 10.2256 21.2197 10.2515 21.1355C10.2774 21.0514 10.4069 21.0125 10.5169 21.0384C10.6464 21.0772 10.7306 21.1743 10.6982 21.2585ZM9.90198 20.9089C9.84373 20.9801 9.72073 20.9672 9.62364 20.8701C9.52654 20.786 9.50065 20.663 9.56538 20.6047C9.62364 20.5335 9.74663 20.5464 9.84373 20.6435C9.92788 20.7277 9.96024 20.8572 9.90198 20.9089ZM9.31292 20.3199C9.25466 20.3587 9.14462 20.3199 9.07341 20.2228C9.00221 20.1257 9.00221 20.0156 9.07341 19.9703C9.14462 19.9121 9.25466 19.9574 9.31292 20.0545C9.38413 20.1516 9.38413 20.2681 9.31292 20.3199ZM8.89216 19.692C8.8339 19.7502 8.73681 19.7179 8.6656 19.6531C8.59439 19.569 8.58145 19.4719 8.63971 19.4266C8.69797 19.3683 8.79506 19.4007 8.86627 19.4654C8.93748 19.5496 8.95042 19.6467 8.89216 19.692ZM8.45846 19.213C8.43256 19.2712 8.34841 19.2842 8.27721 19.2389C8.19306 19.2 8.15422 19.1288 8.18011 19.0705C8.206 19.0317 8.27721 19.0123 8.36136 19.0447C8.44551 19.09 8.48435 19.1612 8.45846 19.213Z" fill="#4349FF"/>
</g>
<defs>
<clipPath id="clip0">
<rect width="29" height="29" fill="white" transform="translate(0.599976 0.505371)"/>
</clipPath>
</defs>
</svg>
