<svg width="43" height="42" viewBox="0 0 43 42" fill="none" xmlns="http://www.w3.org/2000/svg">
<path d="M21.5 0C9.61842 0 0 9.28396 0 20.7524C0 32.2208 9.61842 41.5048 21.5 41.5048C33.3816 41.5048 43 32.2208 43 20.7524C43 9.28396 33.3816 0 21.5 0ZM9.05263 17.4757C9.05263 15.6735 10.5803 14.199 12.4474 14.199C14.3145 14.199 15.8421 15.6735 15.8421 17.4757C15.8421 19.2779 14.3145 20.7524 12.4474 20.7524C10.5803 20.7524 9.05263 19.2779 9.05263 17.4757ZM32.7026 29.5994C30.1 32.8761 26.0829 34.9514 21.5 34.9514C16.9171 34.9514 12.9 32.8761 10.2974 29.5994C10.1842 29.4356 10.0711 29.2172 10.0711 28.9441C10.0711 28.3434 10.5803 27.8519 11.2026 27.8519C11.5987 27.8519 11.9382 28.0157 12.1079 28.2888C14.2579 31.0193 17.6526 32.7123 21.5 32.7123C25.3474 32.7123 28.6855 31.0193 30.8921 28.2888C31.1184 28.0157 31.4579 27.8519 31.7974 27.8519C32.4197 27.8519 32.9289 28.3434 32.9289 28.9441C32.9289 29.2172 32.8158 29.4356 32.7026 29.5994ZM30.5526 20.7524C28.6855 20.7524 27.1579 19.2779 27.1579 17.4757C27.1579 15.6735 28.6855 14.199 30.5526 14.199C32.4197 14.199 33.9474 15.6735 33.9474 17.4757C33.9474 19.2779 32.4197 20.7524 30.5526 20.7524Z" fill="#4349FF"/>
</svg>
