<svg width="441" height="492" viewBox="0 0 441 492" fill="none" xmlns="http://www.w3.org/2000/svg">
<path fill-rule="evenodd" clip-rule="evenodd" d="M274 372L325.962 402V462L274 492L222.038 462V402L274 372Z" fill="url(#paint0_linear)"/>
<path fill-rule="evenodd" clip-rule="evenodd" d="M167 372L218.962 402V462L167 492L115.038 462V402L167 372Z" fill="url(#paint1_linear)"/>
<path fill-rule="evenodd" clip-rule="evenodd" d="M326.95 279L378.912 309V369L326.95 399L274.989 369V309L326.95 279Z" fill="url(#paint2_linear)"/>
<path fill-rule="evenodd" clip-rule="evenodd" d="M380.95 186L432.911 216V276L380.95 306L328.988 276V216L380.95 186Z" fill="url(#paint3_linear)"/>
<path fill-rule="evenodd" clip-rule="evenodd" d="M219.95 279L271.912 309V369L219.95 399L167.989 369V309L219.95 279Z" fill="url(#paint4_linear)"/>
<path fill-rule="evenodd" clip-rule="evenodd" d="M219.95 93L271.912 123V183L219.95 213L167.989 183V123L219.95 93Z" fill="url(#paint5_linear)"/>
<path fill-rule="evenodd" clip-rule="evenodd" d="M273.95 186L325.912 216V276L273.95 306L221.989 276V216L273.95 186Z" fill="url(#paint6_linear)"/>
<path fill-rule="evenodd" clip-rule="evenodd" d="M326.95 93L378.912 123V183L326.95 213L274.989 183V123L326.95 93Z" fill="url(#paint7_linear)"/>
<path fill-rule="evenodd" clip-rule="evenodd" d="M273.95 0L325.912 30V90L273.95 120L221.989 90V30L273.95 0Z" fill="url(#paint8_linear)"/>
<path fill-rule="evenodd" clip-rule="evenodd" d="M167 0L218.962 30V90L167 120L115.038 90V30L167 0Z" fill="url(#paint9_linear)"/>
<path fill-rule="evenodd" clip-rule="evenodd" d="M60 0L111.962 30V90L60 120L8.03848 90V30L60 0Z" fill="url(#paint10_linear)"/>
<defs>
<linearGradient id="paint0_linear" x1="214" y1="432" x2="334.007" y2="431.026" gradientUnits="userSpaceOnUse">
<stop stop-color="#D2D4FC"/>
<stop offset="0.723958" stop-color="#C8E4FF"/>
</linearGradient>
<linearGradient id="paint1_linear" x1="107" y1="432" x2="227.007" y2="431.026" gradientUnits="userSpaceOnUse">
<stop stop-color="#D2D4FC"/>
<stop offset="0.723958" stop-color="#C8E4FF"/>
</linearGradient>
<linearGradient id="paint2_linear" x1="266.95" y1="339" x2="386.957" y2="338.026" gradientUnits="userSpaceOnUse">
<stop stop-color="#D2D4FC"/>
<stop offset="0.723958" stop-color="#C8E4FF"/>
</linearGradient>
<linearGradient id="paint3_linear" x1="320.95" y1="246" x2="440.957" y2="245.026" gradientUnits="userSpaceOnUse">
<stop stop-color="#D2D4FC"/>
<stop offset="0.723958" stop-color="#C8E4FF"/>
</linearGradient>
<linearGradient id="paint4_linear" x1="159.95" y1="339" x2="279.957" y2="338.026" gradientUnits="userSpaceOnUse">
<stop stop-color="#D2D4FC"/>
<stop offset="0.723958" stop-color="#C8E4FF"/>
</linearGradient>
<linearGradient id="paint5_linear" x1="159.95" y1="153" x2="279.957" y2="152.026" gradientUnits="userSpaceOnUse">
<stop stop-color="#D2D4FC"/>
<stop offset="0.723958" stop-color="#C8E4FF"/>
</linearGradient>
<linearGradient id="paint6_linear" x1="213.95" y1="246" x2="333.957" y2="245.026" gradientUnits="userSpaceOnUse">
<stop stop-color="#D2D4FC"/>
<stop offset="0.723958" stop-color="#C8E4FF"/>
</linearGradient>
<linearGradient id="paint7_linear" x1="266.95" y1="153" x2="386.957" y2="152.026" gradientUnits="userSpaceOnUse">
<stop stop-color="#D2D4FC"/>
<stop offset="0.723958" stop-color="#C8E4FF"/>
</linearGradient>
<linearGradient id="paint8_linear" x1="213.95" y1="60" x2="333.957" y2="59.0256" gradientUnits="userSpaceOnUse">
<stop stop-color="#D2D4FC"/>
<stop offset="0.723958" stop-color="#C8E4FF"/>
</linearGradient>
<linearGradient id="paint9_linear" x1="107" y1="60" x2="227.007" y2="59.0256" gradientUnits="userSpaceOnUse">
<stop stop-color="#D2D4FC"/>
<stop offset="0.723958" stop-color="#C8E4FF"/>
</linearGradient>
<linearGradient id="paint10_linear" x1="2.68892e-08" y1="60" x2="120.007" y2="59.0256" gradientUnits="userSpaceOnUse">
<stop stop-color="#D2D4FC"/>
<stop offset="0.723958" stop-color="#C8E4FF"/>
</linearGradient>
</defs>
</svg>
