<svg width="30" height="29" viewBox="0 0 30 29" fill="none" xmlns="http://www.w3.org/2000/svg">
<path d="M15.0533 7.06477C10.9386 7.06477 7.61971 10.3844 7.61971 14.5C7.61971 18.6156 10.9386 21.9352 15.0533 21.9352C19.168 21.9352 22.4869 18.6156 22.4869 14.5C22.4869 10.3844 19.168 7.06477 15.0533 7.06477ZM15.0533 19.3339C12.3943 19.3339 10.2205 17.1661 10.2205 14.5C10.2205 11.8339 12.3878 9.66613 15.0533 9.66613C17.7188 9.66613 19.8861 11.8339 19.8861 14.5C19.8861 17.1661 17.7123 19.3339 15.0533 19.3339V19.3339ZM24.5248 6.76063C24.5248 7.72481 23.7484 8.49487 22.7909 8.49487C21.827 8.49487 21.0571 7.71834 21.0571 6.76063C21.0571 5.80291 21.8334 5.02639 22.7909 5.02639C23.7484 5.02639 24.5248 5.80291 24.5248 6.76063ZM29.4482 8.52075C29.3382 6.19765 28.8077 4.13985 27.1062 2.44444C25.4111 0.749024 23.3538 0.218398 21.0312 0.101919C18.6374 -0.0339729 11.4627 -0.0339729 9.0689 0.101919C6.75278 0.211927 4.69545 0.742553 2.99394 2.43797C1.29244 4.13338 0.768398 6.19117 0.651945 8.51428C0.516083 10.9086 0.516083 18.085 0.651945 20.4792C0.761928 22.8024 1.29244 24.8601 2.99394 26.5556C4.69545 28.251 6.74631 28.7816 9.0689 28.8981C11.4627 29.034 18.6374 29.034 21.0312 28.8981C23.3538 28.7881 25.4111 28.2574 27.1062 26.5556C28.8012 24.8601 29.3317 22.8024 29.4482 20.4792C29.584 18.085 29.584 10.915 29.4482 8.52075V8.52075ZM26.3557 23.0483C25.8511 24.3166 24.8741 25.2937 23.5996 25.8049C21.6911 26.562 17.1624 26.3873 15.0533 26.3873C12.9442 26.3873 8.409 26.5556 6.50694 25.8049C5.23889 25.3002 4.26198 24.323 3.75089 23.0483C2.99394 21.1393 3.16862 16.6096 3.16862 14.5C3.16862 12.3904 3.00041 7.85423 3.75089 5.95175C4.25551 4.68342 5.23242 3.70629 6.50694 3.19508C8.41547 2.43797 12.9442 2.61269 15.0533 2.61269C17.1624 2.61269 21.6976 2.44444 23.5996 3.19508C24.8677 3.69982 25.8446 4.67695 26.3557 5.95175C27.1126 7.86071 26.9379 12.3904 26.9379 14.5C26.9379 16.6096 27.1126 21.1458 26.3557 23.0483Z" fill="#4349FF"/>
</svg>
