<svg width="30" height="31" viewBox="0 0 30 31" fill="none" xmlns="http://www.w3.org/2000/svg">
<path d="M27.8 0H2.59344C1.43844 0 0.5 0.98093 0.5 2.18511V28.1222C0.5 29.3264 1.43844 30.3073 2.59344 30.3073H27.8C28.955 30.3073 29.9 29.3264 29.9 28.1222V2.18511C29.9 0.98093 28.955 0 27.8 0ZM9.38562 25.9777H5.02812V11.5141H9.39219V25.9777H9.38562ZM7.20687 9.53869C5.80906 9.53869 4.68031 8.36834 4.68031 6.93416C4.68031 5.49997 5.80906 4.32962 7.20687 4.32962C8.59812 4.32962 9.73344 5.49997 9.73344 6.93416C9.73344 8.37511 8.60469 9.53869 7.20687 9.53869V9.53869ZM25.7197 25.9777H21.3622V18.9421C21.3622 17.2644 21.3294 15.1063 19.0981 15.1063C16.8275 15.1063 16.4797 16.9329 16.4797 18.8203V25.9777H12.1222V11.5141H16.3025V13.4895H16.3616C16.9456 12.3529 18.3697 11.1555 20.4894 11.1555C24.8994 11.1555 25.7197 14.1524 25.7197 18.0491V25.9777V25.9777Z" fill="#4B4B4B"/>
</svg>
