<svg width="30" height="30" viewBox="0 0 30 30" fill="none" xmlns="http://www.w3.org/2000/svg">
<path d="M7.24125 29.5054H1.22897V10.144H7.24125V29.5054V29.5054ZM4.23187 7.50292C2.30976 7.50292 0.750061 5.91051 0.750061 3.98796C0.750061 2.06542 2.30976 0.505371 4.23187 0.505371C6.15399 0.505371 7.71368 2.06542 7.71368 3.98796C7.71368 5.91051 6.15399 7.50292 4.23187 7.50292ZM29.7436 29.5054H23.7443V20.0804C23.7443 17.8342 23.699 14.9536 20.6184 14.9536C17.4925 14.9536 17.0136 17.394 17.0136 19.9185V29.5054H11.0078V10.144H16.7742V12.7851H16.8583C17.6608 11.2639 19.6217 9.6585 22.547 9.6585C28.6304 9.6585 29.7501 13.6654 29.7501 18.8699V29.5054H29.7436Z" fill="#4349FF"/>
</svg>
