<svg width="43" height="42" viewBox="0 0 43 42" fill="none" xmlns="http://www.w3.org/2000/svg">
<path d="M21.5 0C9.61842 0 0 9.28396 0 20.7524C0 32.2208 9.61842 41.5048 21.5 41.5048C33.3816 41.5048 43 32.2208 43 20.7524C43 9.28396 33.3816 0 21.5 0ZM9.05263 17.4757C9.05263 15.6735 10.5803 14.199 12.4474 14.199C14.3145 14.199 15.8421 15.6735 15.8421 17.4757C15.8421 19.2779 14.3145 20.7524 12.4474 20.7524C10.5803 20.7524 9.05263 19.2779 9.05263 17.4757ZM31.7974 33.313C31.4013 33.313 31.0618 33.1492 30.8921 32.8761C28.7421 30.1456 25.3474 28.4526 21.5 28.4526C17.6526 28.4526 14.3145 30.1456 12.1079 32.8761C11.8816 33.1492 11.5421 33.313 11.2026 33.313C10.5803 33.313 10.0711 32.8215 10.0711 32.2208C10.0711 32.0024 10.1276 31.7839 10.2974 31.5655C12.9 28.2888 16.9171 26.2135 21.5 26.2135C26.0829 26.2135 30.1 28.2888 32.7026 31.5655C32.8158 31.7293 32.9289 31.9477 32.9289 32.2208C32.9289 32.8215 32.4197 33.313 31.7974 33.313ZM30.5526 20.7524C28.6855 20.7524 27.1579 19.2779 27.1579 17.4757C27.1579 15.6735 28.6855 14.199 30.5526 14.199C32.4197 14.199 33.9474 15.6735 33.9474 17.4757C33.9474 19.2779 32.4197 20.7524 30.5526 20.7524Z" fill="#4349FF"/>
</svg>
