<svg width="47" height="47" viewBox="0 0 47 47" fill="none" xmlns="http://www.w3.org/2000/svg">
<g clip-path="url(#clip0)">
<path d="M23.5 0C20.9043 0 18.8 2.10423 18.8 4.7C18.8 7.29577 20.9043 9.4 23.5 9.4C26.0947 9.39745 28.1975 7.29469 28.2 4.7C28.2 2.10423 26.0958 0 23.5 0ZM23.5 7.83333C21.7696 7.83333 20.3667 6.43048 20.3667 4.7C20.3667 2.96952 21.7696 1.56667 23.5 1.56667C25.2305 1.56667 26.6334 2.96952 26.6334 4.7C26.6334 6.43048 25.2305 7.83333 23.5 7.83333Z" fill="#282828"/>
<path d="M26.6333 10.1833H26.4484L26.2831 10.2656C24.5303 11.1383 22.4696 11.1383 20.7168 10.2656L20.5515 10.1833H20.3666C18.2046 10.1859 16.4525 11.938 16.45 14.1V18.8C16.45 20.0979 17.5021 21.15 18.8 21.15H28.2C29.4978 21.15 30.55 20.0979 30.55 18.8V14.1C30.5474 11.938 28.7953 10.1859 26.6333 10.1833ZM28.9833 18.8C28.9833 19.2326 28.6325 19.5833 28.2 19.5833H18.8C18.3674 19.5833 18.0166 19.2326 18.0166 18.8V14.1C18.0168 12.867 18.9698 11.8438 20.1998 11.7563C22.2927 12.7276 24.7073 12.7276 26.8001 11.7563C28.03 11.8438 28.9831 12.867 28.9833 14.1V18.8Z" fill="#282828"/>
<path d="M39.95 25.85C37.3542 25.85 35.25 27.9542 35.25 30.55C35.25 33.1457 37.3542 35.25 39.95 35.25C42.5458 35.25 44.65 33.1457 44.65 30.55C44.6475 27.9553 42.5447 25.8525 39.95 25.85ZM39.95 33.6833C38.2195 33.6833 36.8167 32.2805 36.8167 30.55C36.8167 28.8195 38.2195 27.4166 39.95 27.4166C41.6805 27.4166 43.0833 28.8195 43.0833 30.55C43.0833 32.2805 41.6805 33.6833 39.95 33.6833Z" fill="#282828"/>
<path d="M43.0832 36.0333H42.8984L42.7331 36.1117C40.9803 36.9843 38.9195 36.9843 37.1667 36.1117L37.0014 36.0333H36.8166C34.6546 36.0359 32.9024 37.788 32.8999 39.95V44.65C32.8999 45.9479 33.952 47 35.2499 47H44.6499C45.9478 47 46.9999 45.9479 46.9999 44.65V39.95C46.9974 37.788 45.2452 36.0359 43.0832 36.0333ZM45.4332 44.65C45.4332 45.0826 45.0825 45.4333 44.6499 45.4333H35.2499C34.8173 45.4333 34.4666 45.0826 34.4666 44.65V39.95C34.4668 38.717 35.4198 37.6938 36.6497 37.6063C38.7427 38.5776 41.1571 38.5776 43.2501 37.6063C44.48 37.6938 45.433 38.717 45.4332 39.95V44.65Z" fill="#282828"/>
<path d="M7.0501 25.85C4.45433 25.85 2.3501 27.9542 2.3501 30.55C2.3501 33.1457 4.45433 35.25 7.0501 35.25C9.64587 35.25 11.7501 33.1457 11.7501 30.55C11.7476 27.9553 9.64479 25.8525 7.0501 25.85ZM7.0501 33.6833C5.31962 33.6833 3.91676 32.2805 3.91676 30.55C3.91676 28.8195 5.31962 27.4166 7.0501 27.4166C8.78058 27.4166 10.1834 28.8195 10.1834 30.55C10.1834 32.2805 8.78058 33.6833 7.0501 33.6833Z" fill="#282828"/>
<path d="M10.1833 36.0333H9.99847L9.83318 36.1117C8.08038 36.9843 6.01962 36.9843 4.26682 36.1117L4.10153 36.0333H3.91667C1.75467 36.0359 0.00254583 37.788 0 39.95V44.65C0 45.9479 1.05211 47 2.35 47H11.75C13.0479 47 14.1 45.9479 14.1 44.65V39.95C14.0975 37.788 12.3453 36.0359 10.1833 36.0333ZM12.5333 44.65C12.5333 45.0826 12.1826 45.4333 11.75 45.4333H2.35C1.9174 45.4333 1.56667 45.0826 1.56667 44.65V39.95C1.56686 38.717 2.51989 37.6938 3.74982 37.6063C5.84279 38.5776 8.25722 38.5776 10.3502 37.6063C11.5801 37.6938 12.5331 38.717 12.5333 39.95V44.65Z" fill="#282828"/>
<path d="M31.2719 39.7812C31.2715 39.7804 31.2711 39.7795 31.2707 39.7785C31.1011 39.3805 30.641 39.1953 30.2431 39.3649C26.7059 40.8474 22.7774 41.1178 19.0704 40.1341L19.8036 39.9187C20.219 39.7971 20.4571 39.362 20.3355 38.9466C20.2139 38.5312 19.7787 38.2931 19.3634 38.4147L16.2301 39.3336C16.2183 39.3336 16.2097 39.3469 16.1987 39.3508C16.1262 39.3778 16.058 39.4156 15.9966 39.4628C15.9694 39.4775 15.9433 39.494 15.9183 39.5122C15.8356 39.5859 15.7701 39.6768 15.7264 39.7785C15.6839 39.8809 15.6636 39.9912 15.6668 40.102C15.6859 40.2081 15.7121 40.3127 15.7452 40.4153C15.7499 40.4263 15.7452 40.4388 15.7538 40.4498L17.3205 43.4476C17.5208 43.8314 17.9942 43.9801 18.378 43.7798C18.7617 43.5794 18.9104 43.106 18.7101 42.7223L18.0725 41.5034C22.2842 42.7695 26.8061 42.5234 30.8557 40.8078C31.254 40.6393 31.4404 40.1797 31.2719 39.7812Z" fill="#282828"/>
<path d="M44.4206 20.5962C44.1148 20.2904 43.6189 20.2904 43.313 20.5962L42.2046 21.7046C41.556 14.8436 37.2 8.88967 30.8572 6.19461C30.4592 6.02502 29.9991 6.21018 29.8295 6.60821C29.6599 7.00624 29.8451 7.46635 30.2431 7.63594C35.933 10.0542 39.8883 15.339 40.6042 21.4798L39.7206 20.5962C39.4095 20.2956 38.9136 20.3042 38.613 20.6154C38.3199 20.9189 38.3199 21.4002 38.613 21.7038L40.963 24.0538C41.2685 24.3601 41.7646 24.3608 42.0708 24.0552C42.0713 24.0547 42.0718 24.0542 42.0722 24.0538L44.4222 21.7038C44.7276 21.3975 44.7269 20.9017 44.4206 20.5962Z" fill="#282828"/>
<path d="M17.2106 6.78285C17.208 6.73712 17.2013 6.69179 17.1902 6.64733C17.1902 6.64028 17.1816 6.63558 17.1785 6.62775C17.1753 6.61992 17.1785 6.61443 17.1785 6.60817C17.1571 6.57008 17.1324 6.53385 17.1048 6.50007C17.0795 6.45414 17.0495 6.41086 17.0155 6.37082C16.9692 6.32979 16.9179 6.29483 16.8628 6.26663C16.8353 6.24323 16.8059 6.22198 16.775 6.20318L13.6417 4.77203C13.2415 4.60773 12.7839 4.79896 12.6196 5.19915C12.4642 5.57759 12.6262 6.01195 12.9915 6.19613L14.6138 6.93795C8.50646 10.2065 4.69555 16.5729 4.69995 23.5C4.69995 23.9325 5.05069 24.2833 5.48329 24.2833C5.91588 24.2833 6.26662 23.9325 6.26662 23.5C6.2627 17.4004 9.48818 11.7547 14.7446 8.6605L14.1783 9.84411C13.9916 10.2335 14.1552 10.7006 14.5441 10.8883C14.6498 10.9399 14.7657 10.9667 14.8833 10.9666C15.1841 10.9662 15.4581 10.7936 15.5883 10.5225L17.155 7.25363C17.155 7.2458 17.155 7.23718 17.1612 7.22935C17.1816 7.17579 17.1958 7.12007 17.2035 7.06328C17.2169 7.02108 17.2269 6.9779 17.2333 6.93403C17.2306 6.88302 17.2231 6.83239 17.2106 6.78285Z" fill="#282828"/>
</g>
<defs>
<clipPath id="clip0">
<rect width="47" height="47" fill="white"/>
</clipPath>
</defs>
</svg>
