<svg width="45" height="45" viewBox="0 0 45 45" fill="none" xmlns="http://www.w3.org/2000/svg">
<path d="M23.498 19.129V10.516C23.498 9.96399 23.05 9.51599 22.498 9.51599C21.946 9.51599 21.498 9.96399 21.498 10.516V19.13C20.3625 19.4685 19.467 20.365 19.1295 21.5005H12.7395C12.1875 21.5005 11.7395 21.9485 11.7395 22.5005C11.7395 23.0525 12.1875 23.5005 12.7395 23.5005H19.13C19.5625 24.9535 20.9085 26.0165 22.5 26.0165C24.439 26.0165 26.017 24.439 26.017 22.4995C26.017 20.9075 24.952 19.5605 23.498 19.129ZM22.5 24.017C21.666 24.017 20.987 23.34 20.9835 22.5065C20.9835 22.5045 20.984 22.503 20.984 22.501C20.984 22.499 20.9835 22.4965 20.9835 22.4945C20.9865 21.6605 21.6655 20.983 22.5 20.983C23.3365 20.983 24.017 21.6635 24.017 22.5C24.017 23.3365 23.3365 24.017 22.5 24.017Z" fill="#282828"/>
<path d="M22.5 0C10.0935 0 0 10.0935 0 22.5C0 34.9065 10.0935 45 22.5 45C34.9065 45 45 34.9065 45 22.5C45 10.0935 34.9065 0 22.5 0ZM22.5 43C11.1965 43 2 33.8035 2 22.5C2 11.1965 11.1965 2 22.5 2C33.8035 2 43 11.1965 43 22.5C43 33.8035 33.8035 43 22.5 43Z" fill="#282828"/>
<path d="M22.5 6.562C23.0694 6.562 23.531 6.10041 23.531 5.531C23.531 4.96159 23.0694 4.5 22.5 4.5C21.9306 4.5 21.469 4.96159 21.469 5.531C21.469 6.10041 21.9306 6.562 22.5 6.562Z" fill="#282828"/>
<path d="M22.5 40.5C23.0694 40.5 23.531 40.0384 23.531 39.469C23.531 38.8996 23.0694 38.438 22.5 38.438C21.9306 38.438 21.469 38.8996 21.469 39.469C21.469 40.0384 21.9306 40.5 22.5 40.5Z" fill="#282828"/>
<path d="M39.469 23.531C40.0384 23.531 40.5 23.0694 40.5 22.5C40.5 21.9306 40.0384 21.469 39.469 21.469C38.8996 21.469 38.438 21.9306 38.438 22.5C38.438 23.0694 38.8996 23.531 39.469 23.531Z" fill="#282828"/>
<path d="M5.531 23.531C6.10041 23.531 6.562 23.0694 6.562 22.5C6.562 21.9306 6.10041 21.469 5.531 21.469C4.96159 21.469 4.5 21.9306 4.5 22.5C4.5 23.0694 4.96159 23.531 5.531 23.531Z" fill="#282828"/>
<path d="M34.499 11.532C35.0684 11.532 35.53 11.0704 35.53 10.501C35.53 9.93157 35.0684 9.46997 34.499 9.46997C33.9296 9.46997 33.468 9.93157 33.468 10.501C33.468 11.0704 33.9296 11.532 34.499 11.532Z" fill="#282828"/>
<path d="M10.501 35.53C11.0704 35.53 11.532 35.0684 11.532 34.499C11.532 33.9296 11.0704 33.468 10.501 33.468C9.93157 33.468 9.46997 33.9296 9.46997 34.499C9.46997 35.0684 9.93157 35.53 10.501 35.53Z" fill="#282828"/>
<path d="M34.499 35.53C35.0684 35.53 35.53 35.0684 35.53 34.499C35.53 33.9296 35.0684 33.468 34.499 33.468C33.9296 33.468 33.468 33.9296 33.468 34.499C33.468 35.0684 33.9296 35.53 34.499 35.53Z" fill="#282828"/>
<path d="M10.501 11.532C11.0704 11.532 11.532 11.0704 11.532 10.501C11.532 9.93157 11.0704 9.46997 10.501 9.46997C9.93157 9.46997 9.46997 9.93157 9.46997 10.501C9.46997 11.0704 9.93157 11.532 10.501 11.532Z" fill="#282828"/>
</svg>
