<?xml version="1.0" encoding="UTF-8"?>
<svg width="41px" height="52px" viewBox="0 0 41 52" version="1.1" xmlns="http://www.w3.org/2000/svg" xmlns:xlink="http://www.w3.org/1999/xlink">
    <!-- Generator: Sketch 57.1 (83088) - https://sketch.com -->
    <title>design (1)</title>
    <desc>Created with Sketch.</desc>
    <g id="Page-1" stroke="none" stroke-width="1" fill="none" fill-rule="evenodd">
        <g id="Edubox" transform="translate(-912.000000, -1484.000000)" fill-rule="nonzero">
            <g id="design-(1)" transform="translate(912.000000, 1484.000000)">
                <path d="M7.84057194,17 C7.83604916,17.0016793 7.83132974,17.0034575 7.82906835,17.0042478 L8.17093165,18 L7.84057194,17 Z" id="Path" fill="#000000"></path>
                <polygon id="Path" fill="#000000" points="8.00055 17.00155 8.00055 17.00155 7.99945 16.99845"></polygon>
                <path d="M10.8332656,7.57061018 C10.3758281,7.04889603 9.97638281,6.48124166 9.64163281,5.87717248 C8.83735937,4.20010655 8.13160156,2.47958099 7.52801562,0.723930506 C7.38064844,0.291516987 6.966375,0 6.49989844,0 C6.03342187,0 5.61925,0.291516987 5.47178125,0.723930506 C4.87103906,2.47938254 4.16822656,4.19990811 3.36689844,5.87717248 C3.02940625,6.48163855 2.62701562,7.04929292 2.16653125,7.57061018 C0.804476562,8.95020577 0.0299609375,10.7839447 0,12.7005348 C0,17.6399513 3.82738281,18.9449313 3.991,19 L4.67563281,16.9890489 C4.65075,16.980615 2.16663281,16.1317628 2.16663281,12.7005348 C2.20634375,11.2653743 2.81135156,9.90056297 3.85551563,8.89037435 C4.41309375,8.25455382 4.89846094,7.56148167 5.30288281,6.82336232 C5.72426563,5.99891901 6.1425,5.03050324 6.5,4.14245803 C6.8575,5.03040401 7.27563281,5.99881979 7.69711719,6.82117941 C8.1014375,7.56009255 8.58670313,8.25385926 9.14448438,8.89027512 C10.1886484,9.90046375 10.7936563,11.2652751 10.8333672,12.7004355 C10.8333672,15.9975142 8.52678125,16.9141356 8.32538281,16.9878582 L9.009,18.9956342 C9.17261719,18.9448321 13,17.6398521 13,12.7004355 C12.9699375,10.7839447 12.1954219,8.95020577 10.8332656,7.57061018 Z" id="Path" fill="#282828"></path>
                <path d="M9.99384406,27.7890875 L8.99385187,17.9708778 C8.93779156,17.4181944 8.50965203,17 7.99985944,17 L4.00007814,17 C3.4903793,17 3.06214602,17.4181944 3.00608571,17.9708778 L2.00609351,27.7890875 C2.00206242,27.8289739 2,27.869065 2,27.909156 C2,28.5116463 2.44773251,29 3,29 L8.99975789,29 C9.03650645,29 9.07325502,28.99775 9.10981609,28.9933523 C9.65888839,28.9270793 10.0545917,28.387896 9.99384406,27.7890875 Z M4.11707357,26.8182097 L4.90004299,19.1817903 L7.10495688,19.1817903 L7.88295775,26.8182097 L4.11707357,26.8182097 L4.11707357,26.8182097 Z" id="Shape" fill="#282828"></path>
                <path d="M7.99995313,28 C7.94332857,35.2860954 7.34492699,42.5566364 6.20999836,49.7460795 C6.17699862,49.9359602 5.83303255,49.9349819 5.80003281,49.7460795 C4.66163546,42.5569299 4.05985891,35.2863889 4.00004687,28 L2,28 C2.05981203,35.4121934 2.67096351,42.8083432 3.82801697,50.1217322 C4.02329669,51.2123965 4.93669581,52.0022452 6,52 C7.06330419,52.0022452 7.97670331,51.2123965 8.17198303,50.1217322 C9.32913024,42.8082454 9.94028172,35.4120955 10,28 L7.99995313,28 L7.99995313,28 Z" id="Path" fill="#282828"></path>
                <path d="M5.32082245,12 L3,12 C3,12.9515625 3.14273281,17.7623505 5.96257615,19 L7,17.18 C5.85922541,16.6819158 5.32082245,13.7947011 5.32082245,12 Z" id="Path" fill="#282828"></path>
                <path d="M7.67917755,12 C7.67917755,13.7936549 7.14077459,16.6808696 6,17.1840897 L7.03742385,19 C9.85726719,17.7623505 10,12.9515625 10,12 L7.67917755,12 Z" id="Path" fill="#282828"></path>
                <rect id="Rectangle" fill="#282828" x="34" y="2" width="2" height="11"></rect>
                <path d="M40.9542385,12.3081593 L37.7057433,1.75260309 C37.5684943,1.30590654 37.1467991,1.00001355 36.6683566,1.00001355 L32.3369958,1.00001355 C31.8566246,0.997652273 31.4320869,1.30402633 31.2942289,1.75260309 L28.0457337,12.3081593 C27.9664501,12.5654502 27.9909153,12.8425327 28.1139521,13.0829017 L31.3624473,19.4162157 C31.5467994,19.7758291 31.92464,20.0021462 32.3369958,19.9999847 L36.6683566,19.9999847 C37.0787837,19.9999847 37.4540864,19.7741469 37.6375249,19.4162157 L40.8860201,13.0829017 C41.0091583,12.8425327 41.033522,12.5654502 40.9542385,12.3081593 Z M35.9992681,17.8887985 L33.0062874,17.8887985 L30.2494316,12.5129035 L33.1427242,3.11109893 L35.8628313,3.11109893 L38.7561239,12.5129035 L35.9992681,17.8887985 Z" id="Shape" fill="#282828"></path>
                <path d="M37.1856267,18 L36.1901308,19.9006999 C37.3039544,20.6426315 37.9170975,21.9119301 37.7924934,23.2181054 C37.7924934,25.8255591 36.2559827,43.3994634 35.789463,48.7231021 C35.7320484,49.3264212 35.2401139,49.8042195 34.618945,49.8599843 C33.9067153,49.923844 33.2759773,49.4148654 33.2102283,48.7231021 C32.7438115,43.3995633 31.207198,25.8255591 31.207198,23.2181054 C31.0826967,21.9119301 31.6957369,20.6426315 32.8095605,19.9006999 L32.3049701,18.9541975 L31.8143733,18 C29.9511754,19.0955083 28.8708951,21.1072382 29.0123739,23.2181054 C29.0123739,25.8372517 30.4183125,42.0542127 31.0230184,48.908585 C31.1715968,50.663477 32.6871171,52.0109263 34.5,52 C36.3128829,52.0108263 37.8284032,50.663477 37.9769816,48.908585 C38.5816875,42.0542127 39.9876261,25.8372517 39.9876261,23.2181054 C40.1291049,21.1072382 39.0488246,19.0954084 37.1856267,18 Z" id="Path" fill="#282828"></path>
                <path d="M24.9996781,40 L17.0003835,40 C16.892955,40 16.786089,40.0188181 16.6841914,40.0559429 C16.1602668,40.2463736 15.8769781,40.8640974 16.0515259,41.4356964 L19.0512731,51.2538224 C19.1872929,51.6995244 19.5695732,52 20.0002244,52 L22.0000246,52 C22.4305821,52 22.8128624,51.6995244 22.9489759,51.2538224 L25.9487231,41.4356964 C25.9826577,41.3244243 26,41.2079363 26,41.0907325 C25.9997188,40.488145 25.5519128,40 24.9996781,40 Z M21.2790541,49.818126 L20.7211011,49.818126 L18.3872978,42.1817717 L23.6128574,42.1817717 L21.2790541,49.818126 Z" id="Shape" fill="#282828"></path>
                <rect id="Rectangle" fill="#282828" x="18" y="46" width="6" height="2"></rect>
                <rect id="Rectangle" fill="#282828" x="20" y="14" width="2" height="28"></rect>
                <rect id="Rectangle" fill="#282828" x="24" y="6" width="2" height="35"></rect>
                <rect id="Rectangle" fill="#282828" x="16" y="6" width="2" height="35"></rect>
                <path d="M21,1 C18.2385765,1 16,3.23857649 16,6 L17.9999812,6 C17.9999812,4.34314589 19.3431459,2.99998125 21,2.99998125 C22.6568541,2.99998125 24.0000188,4.34314589 24.0000188,6 L26,6 C26,3.23857649 23.7614235,1 21,1 Z" id="Path" fill="#282828"></path>
                <rect id="Rectangle" fill="#282828" x="17" y="9" width="8" height="2"></rect>
                <rect id="Rectangle" fill="#282828" x="17" y="13" width="8" height="2"></rect>
                <rect id="Rectangle" fill="#282828" x="33" y="12" width="4" height="2"></rect>
            </g>
        </g>
    </g>
</svg>