<?xml version="1.0" encoding="UTF-8"?>
<svg width="49px" height="42px" viewBox="0 0 49 42" version="1.1" xmlns="http://www.w3.org/2000/svg" xmlns:xlink="http://www.w3.org/1999/xlink">
    <!-- Generator: Sketch 57.1 (83088) - https://sketch.com -->
    <title>graphic-tool</title>
    <desc>Created with Sketch.</desc>
    <g id="Page-1" stroke="none" stroke-width="1" fill="none" fill-rule="evenodd">
        <g id="Edubox" transform="translate(-906.000000, -1484.000000)" fill="#282828" fill-rule="nonzero">
            <g id="graphic-tool" transform="translate(906.000000, 1484.000000)">
                <path d="M32.8075352,6.84175817 L27.8285685,0.39567597 C27.6367164,0.14724819 27.3283643,0 27,0 C26.6716357,0 26.3632836,0.14724819 26.1714315,0.39567597 L21.1924648,6.84175817 C21.0672861,7.00375973 21,7.1983139 21,7.39791277 L21,7.54992011 L21,38.4381548 C21,40.402162 22.7140086,42 24.8208087,42 L29.1790892,42 C31.2859914,42 33,40.402162 33,38.4381548 L33,7.54992011 L33,7.39791277 C33,7.1983139 32.9327139,7.00366455 32.8075352,6.84175817 Z M27,2.58079342 L30.1030223,6.59808954 L23.8970798,6.59808954 L27,2.58079342 Z M23.0420666,8.50175069 L31.0072115,8.50175069 L31.0072115,33.1556855 L28.401242,33.1556855 L28.401242,14.9747697 C28.4013441,14.4489785 28.2770577,14.1399067 27.713141,14.1399067 C27.1493264,14.1399067 27.0246391,14.4490737 27.0246391,14.9747697 L27.0246391,33.1556855 L23.0420666,33.1556855 L23.0420666,8.50175069 Z M30.9579334,38.4380596 C30.9579334,39.3523881 30.1599959,40.0962437 29.1790892,40.0962437 L24.8208087,40.0962437 C23.8401062,40.0962437 23.0420666,39.3523881 23.0420666,38.4380596 L23.0420666,34.7493849 L30.9579334,34.7493849 L30.9579334,38.4380596 Z M30.9579334,33.1556855 L30.9579334,8.50175069 L30.9579334,33.1556855 Z" id="Shape"></path>
                <path d="M9.46704722,17.8195485 L9.46675522,17.6745457 C9.46685255,16.9246986 10.0909486,16.3146213 10.8580262,16.3146213 C10.8717501,16.3146213 10.885474,16.3143358 10.8991979,16.3137649 L13.8639463,16.1911215 C15.5951998,16.1792282 17,14.7987522 17,13.1035326 C17,11.4009868 15.5830332,10.0159438 13.8414625,10.0159438 L7.21730343,10.0159438 C6.54911571,10.0159438 6.00541627,9.48445719 6.00541627,8.83118348 C6.00541627,8.51510785 6.13292186,8.2183469 6.36437859,7.99560968 C6.58639406,7.7818162 6.87663962,7.6647864 7.18323705,7.6647864 C7.19452762,7.6647864 7.20601286,7.66507184 7.21730343,7.66507184 L13.0131628,7.66488154 C15.174918,7.66488154 16.9335219,5.94558997 16.9335219,3.8323932 C16.9335219,1.71919642 15.1748207,0 13.0130655,0 L6.41995546,0 C5.8824853,0 5.44663029,0.425969472 5.44663029,0.951461853 C5.44663029,1.47695423 5.8824853,1.90292371 6.41995546,1.90292371 L13.0130655,1.90292371 C14.1014377,1.90292371 14.9868716,2.76846855 14.9868716,3.8323932 C14.9868716,4.89631784 14.1014377,5.76186269 13.0131628,5.76195784 L7.22421404,5.76214813 C6.3904637,5.75092088 5.59798235,6.06271493 4.99880338,6.63939596 C4.39261647,7.22283237 4.05876594,8.00112816 4.05876594,8.83127863 C4.05876594,10.5338245 5.47573271,11.9189626 7.21730343,11.9189626 L13.8413652,11.9189626 C14.5095529,11.9189626 15.0532523,12.4503541 15.0532523,13.1036278 C15.0532523,13.7569015 14.5095529,14.2883881 13.8413652,14.2883881 C13.8276413,14.2883881 13.8139174,14.2886735 13.8001935,14.2892444 L10.8357371,14.4118878 C9.00539909,14.4235908 7.52020222,15.8827527 7.52020222,17.6765437 L7.52049422,17.8201193 C3.29363503,18.2944231 0,21.8128339 0,26.0697693 L0,33.6951652 C0,38.274456 3.81115202,42 8.4956687,42 C13.1801854,42 16.9913374,38.274456 16.9913374,33.6951652 L16.9913374,26.0697693 C16.9913374,21.811597 13.6957557,18.2922347 9.46704722,17.8195485 Z M1.94665033,26.0697693 C1.94665033,22.8628672 4.37100865,20.1992497 7.52234354,19.7383616 L7.52234354,27.4986747 L1.94665033,27.4986747 L1.94665033,26.0697693 Z M15.0446871,33.6951652 C15.0446871,37.2251838 12.1068024,40.0970763 8.4956687,40.0970763 C4.88453501,40.0970763 1.94665033,37.2251838 1.94665033,33.6951652 L1.94665033,29.4016936 L15.0446871,29.4016936 L15.0446871,33.6951652 Z M15.0446871,27.4986747 L9.46899387,27.4986747 L9.46899387,19.7383616 C12.6203288,20.1992497 15.0446871,22.8628672 15.0446871,26.0697693 L15.0446871,27.4986747 Z" id="Shape"></path>
                <path d="M3.979998,0.804 C3.9669967,0.741 3.9479948,0.678 3.9229923,0.617 C3.8979898,0.557 3.8669867,0.499 3.8309831,0.445 C3.79507951,0.39 3.75307531,0.339 3.70707071,0.293 C3.52105211,0.107 3.2630263,0 3,0 C2.7369737,0 2.47894789,0.107 2.29292929,0.293 C2.24692469,0.339 2.20492049,0.39 2.16891689,0.445 C2.1320132,0.499 2.10191019,0.557 2.07690769,0.617 C2.05090509,0.678 2.0320032,0.741 2.01890189,0.804 C2.00590059,0.869 2,0.935 2,1 C2,1.065 2.0060006,1.131 2.01890189,1.195 C2.03190319,1.259 2.05090509,1.322 2.07680768,1.382 C2.10181018,1.443 2.13191319,1.501 2.16881688,1.555 C2.20482048,1.61 2.24682468,1.661 2.29282928,1.707 C2.33883388,1.753 2.38983898,1.795 2.44494449,1.831 C2.49894989,1.867 2.5569557,1.898 2.6169617,1.923 C2.6779678,1.948 2.7409741,1.967 2.8049805,1.98 C2.8689869,1.993 2.9349935,2 3,2 C3.2630263,2 3.52105211,1.893 3.70707071,1.707 C3.75307531,1.661 3.79507951,1.61 3.8309831,1.555 C3.8669867,1.501 3.8979898,1.443 3.9229923,1.382 C3.9479948,1.322 3.9669967,1.259 3.979998,1.195 C3.9929993,1.131 4,1.065 4,1 C4,0.935 3.9929993,0.869 3.979998,0.804 Z" id="Path"></path>
                <path d="M48.9923912,9.35539589 C48.8813236,7.1429186 47.6865176,6.04788438 46.7264111,5.16803157 C45.6877028,4.21598282 45.0606986,3.64132191 45.6527241,1.75794558 C45.920794,0.90528344 45.5516073,0.457574872 45.3075601,0.266583804 C45.0039083,0.02899354 44.4620392,-0.171092341 43.6036524,0.225235222 C42.4914687,0.738857742 40.8033417,2.24887795 39.4984732,3.8971018 C38.3004508,5.4104974 36.8955713,7.67669972 37.0061363,9.87895707 C37.0888591,11.5257745 37.8373844,13.0357947 39.059329,14.0979188 C38.4554429,14.8581327 38.0975137,15.7980863 38.0975137,16.8147363 C38.0975137,17.4597179 38.2384339,18.0745085 38.4947438,18.6325737 L38.4947438,36.9556211 C38.4947438,39.1857255 40.4397837,41 42.8304008,41 C45.2210179,41 47.1660579,39.1857255 47.1660579,36.9556211 L47.1660579,19.238082 C47.6346526,18.534031 47.9023205,17.7031214 47.9023205,16.8147363 C47.902421,15.8102752 47.5526334,14.8811041 46.9619146,14.1258596 C48.3249804,12.9456904 49.0851653,11.2046432 48.9923912,9.35539589 Z M45.1557845,36.9555274 C45.155885,38.1516359 44.1127542,39.1246871 42.8305013,39.1246871 C41.5482485,39.1246871 40.5051176,38.1516359 40.5051176,36.9555274 L40.5051176,20.7574783 C41.0270851,21.0426991 41.6139844,21.2425975 42.247321,21.3338269 C42.2980804,21.3411402 42.3493424,21.3447969 42.4006044,21.3447969 L43.5993304,21.3447969 C43.6506928,21.3447969 43.7019548,21.3411402 43.7526137,21.3338269 C43.8188522,21.3242633 43.8847892,21.3131995 43.9504246,21.3011043 C43.9923388,21.2935097 44.0336499,21.2846961 44.0751621,21.2761639 C44.0930535,21.2724135 44.1110454,21.2688505 44.1289369,21.2649126 C44.4897809,21.1863409 44.8333367,21.0720463 45.1557845,20.9264355 L45.1557845,36.9555274 L45.1557845,36.9555274 Z M44.3586106,19.1947644 C44.3542885,19.1967334 44.3501675,19.1987961 44.3460464,19.2008589 C44.3170985,19.2152043 44.287849,19.2288934 44.258298,19.242395 C44.2443266,19.2487707 44.2302547,19.254959 44.2160822,19.2611472 C44.1935672,19.2709921 44.1709516,19.2805557 44.1482355,19.289838 C44.1268261,19.2985578 44.1052156,19.3069025 44.0836052,19.3151535 C44.0660153,19.3218105 44.0485259,19.3285613 44.0308355,19.3349371 C44.0039984,19.3445944 43.9768597,19.3535955 43.949721,19.3625028 C43.9356491,19.3670971 43.9216777,19.3718789 43.9075053,19.3762856 C43.8768486,19.3857555 43.8459909,19.394569 43.8150327,19.4031013 C43.8032726,19.4063829 43.791613,19.4098521 43.7797524,19.4130399 C43.7459798,19.4219472 43.7119057,19.4299169 43.677731,19.4376053 C43.6680817,19.4397618 43.6586334,19.4422934 43.6489841,19.4443561 C43.6050596,19.4538259 43.5609341,19.4623582 43.5165071,19.4698591 L42.4839302,19.4698591 C42.4829251,19.4696716 42.4819199,19.469484 42.4809148,19.4692965 C42.4323667,19.4611393 42.3844217,19.4513882 42.3366777,19.4408869 C42.3175801,19.4366677 42.2986835,19.4320734 42.2796864,19.4274791 C42.2512411,19.4206346 42.2228962,19.413415 42.1947524,19.4057266 C42.1710311,19.3992571 42.1472094,19.3928813 42.1236892,19.3858493 C42.1058983,19.3805986 42.0883084,19.3746917 42.070618,19.369066 C40.923757,19.0030233 40.1080886,17.976247 40.1080886,16.8148301 C40.1080886,15.945291 40.5518565,15.171013 41.2386664,14.6772678 C41.2651015,14.6582343 41.2919386,14.6397634 41.3189768,14.6216675 C41.3652131,14.5907264 41.4124545,14.5610042 41.4607011,14.5325946 C41.4818089,14.5201244 41.5030173,14.507748 41.5244267,14.4958403 C41.5910673,14.4588048 41.6593161,14.4241132 41.7292736,14.3920469 C41.7361085,14.3888591 41.7429434,14.3854837 41.7497784,14.3823896 C41.7902854,14.3641999 41.8313955,14.3468542 41.8729076,14.3303522 C41.8797425,14.3276332 41.886678,14.3252891 41.8935129,14.3226638 C41.9656817,14.2946293 42.0393582,14.2695014 42.1143414,14.246905 C42.1375601,14.2399667 42.1607788,14.2334034 42.1841984,14.2270277 C42.2349578,14.2130573 42.2863203,14.2004933 42.3382859,14.1890545 C42.3778883,14.1804285 42.4176917,14.1722713 42.4577966,14.1652392 C42.4850358,14.1603636 42.512275,14.1556756 42.5397153,14.1515501 C42.6026368,14.1422678 42.666061,14.1345794 42.7300882,14.1291412 C42.7473765,14.1276411 42.7648659,14.1266097 42.7822548,14.1253908 C42.8545241,14.1204215 42.927095,14.1169523 43.0003694,14.1169523 C43.0747495,14.1169523 43.148225,14.120609 43.221399,14.1256721 C43.2386873,14.126891 43.2560762,14.1278286 43.273264,14.1293287 C43.3373917,14.1348606 43.4009164,14.1427366 43.4639385,14.1521127 C43.4923838,14.1564257 43.5206282,14.1612075 43.5488725,14.1662706 C43.589279,14.1733964 43.6293839,14.1818349 43.6692879,14.1906484 C43.721756,14.2022748 43.7737216,14.21512 43.8249835,14.2293717 C43.8462924,14.2352786 43.8676013,14.2414669 43.8888097,14.2478426 C43.960878,14.2695951 44.0317402,14.2938792 44.1011951,14.3206011 C44.1114475,14.3245391 44.1218004,14.3282895 44.1319523,14.3323212 C44.2537748,14.3807956 44.3711748,14.4370522 44.4837501,14.5000596 C44.5086775,14.51403 44.5332028,14.5286567 44.5577282,14.5433771 C44.6031604,14.5705678 44.6476879,14.5987899 44.6913108,14.6282308 C44.7217665,14.6488582 44.7519206,14.6700482 44.7816726,14.6918945 C45.4571245,15.1862023 45.8923487,15.9537294 45.8923487,16.8148301 C45.8923487,17.8255732 45.2747927,18.7346794 44.3586106,19.1947644 Z M45.4633563,12.8610243 C45.4415449,12.8492104 45.4187283,12.839178 45.3968163,12.8276454 C45.3443481,12.8000797 45.2910759,12.7735453 45.2374016,12.7477611 C45.2099614,12.7346345 45.1827222,12.7210392 45.1549804,12.7083815 C44.9759656,12.6263406 44.7907189,12.5547072 44.600346,12.4932001 C44.589792,12.4898247 44.5793386,12.486543 44.5687847,12.4831676 C44.4734977,12.4530704 44.3770046,12.4252234 44.2792048,12.4005642 C44.2788028,12.4004705 44.2784007,12.4003767 44.2778981,12.4001892 C44.0797857,12.3502146 43.8768486,12.3118664 43.6696899,12.285332 C43.6507934,12.2828942 43.6317963,12.2808315 43.6128997,12.2785812 C43.5328908,12.2692051 43.4523794,12.2617043 43.3712648,12.2560786 C43.3470411,12.2543909 43.3229178,12.2523282 43.298694,12.2509217 C43.1997885,12.2453898 43.1003805,12.2416394 43.0000679,12.2416394 C42.9007604,12.2416394 42.8023575,12.2452961 42.7044572,12.2507342 C42.6810375,12.2520469 42.6577183,12.2541096 42.6342986,12.2557036 C42.5539882,12.2612355 42.4741804,12.2685488 42.3949756,12.2777374 C42.3763806,12.2798939 42.3578861,12.2819566 42.339291,12.2843944 C42.0325233,12.3231177 41.7348018,12.3884691 41.4485389,12.4778233 C41.4403973,12.4803548 41.4323562,12.4828864 41.4243151,12.4855117 C41.3336518,12.5142963 41.2439936,12.5452374 41.1557426,12.5788038 C41.1484051,12.5816166 41.1409671,12.5841482 41.1336296,12.586961 C41.0415591,12.6224964 40.9506947,12.6600946 40.8614386,12.7005993 C40.8420394,12.7094128 40.8231429,12.719164 40.8038442,12.728165 C40.7428324,12.7567621 40.6824237,12.7862968 40.6229196,12.8172379 C40.6055308,12.826239 40.5874383,12.8340211 40.57015,12.8432097 C39.6458263,12.1095302 39.0753107,11.0069014 39.0142989,9.79129057 C38.9467537,8.4471335 39.7914706,6.60744977 41.331742,4.74395076 C42.1037875,3.80990411 42.8475886,3.10472796 43.4362972,2.62551571 C43.269545,4.62853102 44.3875585,5.65324452 45.3176115,6.50562537 C46.1721787,7.28881064 46.9101501,7.96510842 46.9843291,9.44306238 C47.0521759,10.7941578 46.4797505,12.0544925 45.4633563,12.8610243 Z" id="Shape"></path>
            </g>
        </g>
    </g>
</svg>