<?xml version="1.0" encoding="UTF-8"?>
<svg width="53px" height="45px" viewBox="0 0 53 45" version="1.1" xmlns="http://www.w3.org/2000/svg" xmlns:xlink="http://www.w3.org/1999/xlink">
    <!-- Generator: Sketch 57.1 (83088) - https://sketch.com -->
    <title>graphic-tool</title>
    <desc>Created with Sketch.</desc>
    <g id="Page-1" stroke="none" stroke-width="1" fill="none" fill-rule="evenodd">
        <g id="Edubox" transform="translate(-906.000000, -1484.000000)" fill="#282828" fill-rule="nonzero">
            <g id="graphic-tool" transform="translate(906.000000, 1484.000000)">
                <path d="M35.7914965,7.33045518 L30.3976159,0.423938539 C30.1897761,0.157765918 29.855728,0 29.5,0 C29.144272,0 28.8102239,0.157765918 28.6023841,0.423938539 L23.2085035,7.33045518 C23.0728933,7.50402828 23,7.71247918 23,7.92633511 L23,8.08920012 L23,41.1837373 C23,43.2880307 24.8568426,45 27.1392094,45 L31.86068,45 C34.1431574,45 36,43.2880307 36,41.1837373 L36,8.08920012 L36,7.92633511 C36,7.71247918 35.9271067,7.5039263 35.7914965,7.33045518 Z M29.5,2.76513581 L32.8616074,7.06938165 L26.1385032,7.06938165 L29.5,2.76513581 Z M25.2122388,9.10901859 L30.4640937,9.10901859 L30.4640937,35.5239487 L28.5355745,35.5239487 L28.5355745,16.0443961 C28.5356851,15.4810484 28.0404755,15.0244756 27.4295657,15.0244756 C26.8187666,15.0244756 26.3234463,15.4810484 26.3234463,16.0442941 L26.3234463,35.5239487 L25.2122388,35.5239487 L25.2122388,9.10901859 Z M33.7877612,41.1836353 C33.7877612,42.1632729 32.9233289,42.9602611 31.86068,42.9602611 L27.1392094,42.9602611 C26.0767817,42.9602611 25.2122388,42.1632729 25.2122388,41.1836353 L25.2122388,37.5634837 L33.7877612,37.5634837 L33.7877612,41.1836353 Z M33.7877612,35.5239487 L32.6764431,35.5239487 L32.6764431,9.10901859 L33.7877612,9.10901859 L33.7877612,35.5239487 Z" id="Shape"></path>
                <path d="M28.980099,10.8038505 C28.9670984,10.7408426 28.9480974,10.6778347 28.9230962,10.6168271 C28.8980949,10.5568196 28.8670934,10.4988124 28.8310916,10.4448056 C28.7950898,10.3897987 28.7530877,10.3387923 28.7070854,10.2927866 C28.6610831,10.2467808 28.6100805,10.2047756 28.5550778,10.167771 C28.5010751,10.1317665 28.4430722,10.1017627 28.3820691,10.0767596 C28.3220661,10.0517565 28.259163,10.031754 28.1950598,10.0187523 C28.0660533,9.99374922 27.9330467,9.99374922 27.8040402,10.0187523 C27.7410371,10.031754 27.6780339,10.0517565 27.6171309,10.0767596 C27.5570279,10.1017627 27.499025,10.1317665 27.4450223,10.167771 C27.3900195,10.2047756 27.339017,10.2467808 27.2930147,10.2927866 C27.2470124,10.3387923 27.2050103,10.3897987 27.1680084,10.4448056 C27.1320066,10.4988124 27.1010051,10.5568196 27.0760038,10.6168271 C27.0510026,10.6778347 27.0320016,10.7408426 27.019001,10.8038505 C27.0060003,10.8688586 27,10.9348669 27,10.999875 C27,11.2629079 27.1070054,11.5209401 27.2931147,11.7069634 C27.479024,11.8929866 27.7370369,12 28.00005,12 C28.0650533,12 28.1311566,11.9929991 28.1950598,11.9799975 C28.259163,11.9669959 28.3221661,11.9479935 28.3820691,11.9229904 C28.4430722,11.8979872 28.5010751,11.8669834 28.5550778,11.8309789 C28.6100805,11.7949744 28.6610831,11.7529691 28.7070854,11.7069634 C28.7530877,11.6609576 28.7950898,11.6099512 28.8310916,11.5549444 C28.8670934,11.5009376 28.8980949,11.4429304 28.9230962,11.3819227 C28.9480974,11.3219152 28.9670984,11.2589074 28.980099,11.1948994 C28.9930997,11.1308914 29,11.0648831 29,10.999875 C29,10.9348669 28.9930997,10.8688586 28.980099,10.8038505 Z" id="Path"></path>
                <path d="M10.0239323,19.0923734 L10.0236232,18.9370132 C10.0237262,18.1336056 10.6845339,17.4799513 11.4967336,17.4799513 C11.5112648,17.4799513 11.525796,17.4796455 11.5403272,17.4790339 L14.6794726,17.3476302 C16.5125645,17.3348874 18,15.855806 18,14.0394993 C18,12.215343 16.4996822,10.7313683 14.6556662,10.7313683 L7.64185069,10.7313683 C6.93435781,10.7313683 6.35867605,10.1619184 6.35867605,9.4619823 C6.35867605,9.12332984 6.49368197,8.80537168 6.7387538,8.56672466 C6.973829,8.33766022 7.28114784,8.21227114 7.60578041,8.21227114 C7.61773513,8.21227114 7.62989597,8.21257697 7.64185069,8.21257697 L13.778643,8.21237308 C16.0675602,8.21237308 17.9296114,6.37027497 17.9296114,4.10613557 C17.9296114,1.84199617 16.0674572,0 13.7785399,0 L6.79759989,0 C6.22851385,0 5.76702031,0.456395863 5.76702031,1.01942341 C5.76702031,1.58245097 6.22851385,2.03884683 6.79759989,2.03884683 L13.7785399,2.03884683 C14.930934,2.03884683 15.8684522,2.96621631 15.8684522,4.10613557 C15.8684522,5.24605483 14.930934,6.17342431 13.778643,6.17352625 L7.64916781,6.17373014 C6.76637333,6.16170094 5.92727543,6.49576599 5.29285064,7.11363853 C4.65100567,7.73874896 4.29751688,8.57263732 4.29751688,9.46208425 C4.29751688,11.2862405 5.79783464,12.7703171 7.64185069,12.7703171 L14.6555631,12.7703171 C15.363056,12.7703171 15.9387378,13.3396651 15.9387378,14.0396012 C15.9387378,14.7395373 15.363056,15.3089872 14.6555631,15.3089872 C14.641032,15.3089872 14.6265008,15.3092931 14.6119696,15.3099047 L11.4731334,15.4413084 C9.53512845,15.4538473 7.96256706,17.0172351 7.96256706,18.939154 L7.96287623,19.092985 C3.48737826,19.6011676 0,23.3708934 0,27.9318957 L0,36.1019627 C0,41.0083457 4.03533743,45 8.99541392,45 C13.9554904,45 17.9908278,41.0083457 17.9908278,36.1019627 L17.9908278,27.9318957 C17.9908278,23.3695682 14.5013884,19.5988229 10.0239323,19.0923734 Z M2.06115917,27.9318957 C2.06115917,24.4959291 4.62812681,21.6420533 7.96483433,21.1482446 L7.96483433,29.4628658 L2.06115917,29.4628658 L2.06115917,27.9318957 Z M15.9296687,36.1019627 C15.9296687,39.8841255 12.8189672,42.9611532 8.99541392,42.9611532 C5.1718606,42.9611532 2.06115917,39.8841255 2.06115917,36.1019627 L2.06115917,31.5018146 L15.9296687,31.5018146 L15.9296687,36.1019627 Z M15.9296687,29.4628658 L10.0259935,29.4628658 L10.0259935,21.1482446 C13.362701,21.6420533 15.9296687,24.4959291 15.9296687,27.9318957 L15.9296687,29.4628658 Z" id="Shape"></path>
                <path d="M3.979998,0.804 C3.9669967,0.741 3.9479948,0.678 3.9229923,0.617 C3.8979898,0.557 3.8669867,0.499 3.8309831,0.445 C3.79507951,0.39 3.75307531,0.339 3.70707071,0.293 C3.52105211,0.107 3.2630263,0 3,0 C2.7369737,0 2.47894789,0.107 2.29292929,0.293 C2.24692469,0.339 2.20492049,0.39 2.16891689,0.445 C2.1320132,0.499 2.10191019,0.557 2.07690769,0.617 C2.05090509,0.678 2.0320032,0.741 2.01890189,0.804 C2.00590059,0.869 2,0.935 2,1 C2,1.065 2.0060006,1.131 2.01890189,1.195 C2.03190319,1.259 2.05090509,1.322 2.07680768,1.382 C2.10181018,1.443 2.13191319,1.501 2.16881688,1.555 C2.20482048,1.61 2.24682468,1.661 2.29282928,1.707 C2.33883388,1.753 2.38983898,1.795 2.44494449,1.831 C2.49894989,1.867 2.5569557,1.898 2.6169617,1.923 C2.6779678,1.948 2.7409741,1.967 2.8049805,1.98 C2.8689869,1.993 2.9349935,2 3,2 C3.2630263,2 3.52105211,1.893 3.70707071,1.707 C3.75307531,1.661 3.79507951,1.61 3.8309831,1.555 C3.8669867,1.501 3.8979898,1.443 3.9229923,1.382 C3.9479948,1.322 3.9669967,1.259 3.979998,1.195 C3.9929993,1.131 4,1.065 4,1 C4,0.935 3.9929993,0.869 3.979998,0.804 Z" id="Path"></path>
                <path d="M52.9917571,10.039937 C52.8714339,7.66557118 51.5770608,6.49041251 50.5369453,5.54618022 C49.4116781,4.52446936 48.7324235,3.9077601 49.3737844,1.88657574 C49.6641935,0.971523691 49.2642413,0.491055961 48.9998568,0.286089936 C48.6709007,0.0311150186 48.0838758,-0.183611293 47.1539568,0.241715848 C45.9490911,0.792920504 44.1202868,2.41342999 42.7066793,4.18225559 C41.4088217,5.80638746 39.8868689,8.23840946 40.0066477,10.6018076 C40.096264,12.3691239 40.9071664,13.9896334 42.2309398,15.1294739 C41.5767298,15.9453131 41.1889732,16.9540438 41.1889732,18.0450829 C41.1889732,18.7372583 41.3416367,19.3970335 41.6193057,19.9959328 L41.6193057,39.659691 C41.6193057,42.0529737 43.7264324,44 46.3162675,44 C48.9061027,44 51.0132293,42.0529737 51.0132293,39.659691 L51.0132293,20.6457465 C51.5208736,19.8901796 51.8108472,18.9984717 51.8108472,18.0450829 C51.8109561,16.9671246 51.4320195,15.9699654 50.7920741,15.1594591 C52.2687288,13.8929361 53.0922624,12.0244952 52.9917571,10.039937 Z M48.8354332,39.6595904 C48.8355421,40.943219 47.7054837,41.9874691 46.3163764,41.9874691 C44.9272692,41.9874691 43.7972108,40.943219 43.7972108,39.6595904 L43.7972108,22.2763182 C44.3626755,22.5824088 44.9984831,22.7969339 45.6845978,22.8948386 C45.7395871,22.9026871 45.7951209,22.9066113 45.8506547,22.9066113 L47.1492746,22.9066113 C47.2049172,22.9066113 47.260451,22.9026871 47.3153315,22.8948386 C47.3870899,22.8845752 47.4585216,22.8727019 47.5296267,22.8597217 C47.5750337,22.8515714 47.6197874,22.8421129 47.6647589,22.8329564 C47.6841413,22.8289315 47.7036326,22.8251079 47.7230149,22.8208818 C48.1139294,22.736561 48.4861147,22.6139033 48.8354332,22.4576381 L48.8354332,39.6595904 L48.8354332,39.6595904 Z M47.9718282,20.5992594 C47.9671459,20.6013724 47.9626814,20.6035861 47.9582169,20.6057998 C47.9268567,20.6211949 47.8951697,20.6358856 47.8631561,20.6503751 C47.8480204,20.6572174 47.8327759,20.6638584 47.8174224,20.6704994 C47.7930311,20.6810647 47.7685309,20.6913281 47.7439218,20.7012896 C47.7207283,20.7106474 47.697317,20.7196027 47.6739056,20.7284574 C47.6548499,20.7356015 47.6359031,20.7428463 47.6167385,20.7496885 C47.5876649,20.7600526 47.5582647,20.7697122 47.5288644,20.7792713 C47.5136198,20.7842017 47.4984842,20.7893334 47.4831307,20.7940626 C47.4499193,20.8042254 47.4164901,20.8136838 47.3829521,20.8228404 C47.370212,20.8263621 47.3575808,20.8300851 47.3447318,20.8335063 C47.3081448,20.8430653 47.2712311,20.8516181 47.2342086,20.8598691 C47.2237552,20.8621834 47.2135195,20.8649002 47.2030661,20.8671139 C47.1554813,20.8772766 47.1076787,20.8864332 47.0595494,20.8944829 L45.9409244,20.8944829 C45.9398355,20.8942817 45.9387466,20.8940804 45.9376577,20.8938792 C45.8850639,20.8851251 45.8331235,20.8746605 45.7814008,20.8633909 C45.7607117,20.8588629 45.7402405,20.8539324 45.7196603,20.849002 C45.6888445,20.8416566 45.6581375,20.8339088 45.6276484,20.8256578 C45.6019504,20.8187149 45.5761435,20.8118726 45.5506633,20.804326 C45.5313898,20.7986912 45.5123341,20.7923521 45.4931695,20.7863148 C44.2507368,20.3934884 43.367096,19.2915822 43.367096,18.0451835 C43.367096,17.1120196 43.8478445,16.2810871 44.5918886,15.7512142 C44.6205266,15.730788 44.6496002,15.7109656 44.6788915,15.6915456 C44.7289808,15.6583405 44.780159,15.6264435 44.8324261,15.5959552 C44.855293,15.5825725 44.8782688,15.5692905 44.9014623,15.5565116 C44.9736562,15.5167661 45.0475924,15.4795361 45.1233797,15.4451236 C45.1307842,15.4417024 45.1381887,15.43808 45.1455932,15.4347595 C45.1894758,15.415239 45.2340118,15.396624 45.2789832,15.3789146 C45.2863877,15.3759966 45.2939011,15.373481 45.3013057,15.3706636 C45.3794885,15.3405778 45.4593048,15.3136112 45.5405366,15.2893615 C45.5656901,15.2819155 45.5908436,15.274872 45.616215,15.2680297 C45.6712043,15.2530371 45.726847,15.2395538 45.783143,15.227278 C45.8260456,15.2180208 45.869166,15.2092667 45.912613,15.2017201 C45.9421222,15.1964878 45.9716313,15.1914567 46.0013582,15.1870294 C46.0695232,15.1770678 46.1382327,15.1688169 46.2075955,15.1629808 C46.2263246,15.1613709 46.2452714,15.160264 46.2641093,15.158956 C46.3424011,15.153623 46.4210195,15.1499 46.5004002,15.1499 C46.5809787,15.1499 46.6605771,15.1538243 46.7398489,15.1592578 C46.7585779,15.1605659 46.7774159,15.1615721 46.796036,15.1631821 C46.8655077,15.1691187 46.9343261,15.1775709 47.0026,15.1876331 C47.0334158,15.1922617 47.0640138,15.1973934 47.0946119,15.2028269 C47.1383856,15.2104742 47.1818326,15.2195301 47.2250619,15.2289885 C47.2819023,15.2414656 47.3381984,15.2552508 47.3937322,15.2705452 C47.4168168,15.2768844 47.4399015,15.2835254 47.4628772,15.2903677 C47.5409512,15.3137119 47.6177185,15.3397728 47.6929614,15.36845 C47.7040681,15.3726761 47.7152838,15.3767009 47.7262816,15.3810277 C47.8582561,15.433049 47.9854394,15.4934219 48.107396,15.5610395 C48.1344006,15.5760321 48.1609697,15.5917291 48.1875389,15.6075267 C48.2367571,15.6367069 48.2849952,15.666994 48.3322534,15.6985892 C48.365247,15.7207259 48.397914,15.7434663 48.4301454,15.7669112 C49.1618848,16.2973878 49.6333777,17.1210755 49.6333777,18.0451835 C49.6333777,19.1298834 48.9643587,20.1055096 47.9718282,20.5992594 Z M49.168636,13.8020748 C49.1450069,13.7893965 49.1202889,13.77863 49.096551,13.7662536 C49.0397105,13.7366709 48.9819989,13.708195 48.9238517,13.6805241 C48.8941248,13.666437 48.8646157,13.6518469 48.8345621,13.638263 C48.6406293,13.5502192 48.4399454,13.4733444 48.2337081,13.4073366 C48.2222747,13.4037143 48.2109502,13.4001925 48.1995167,13.3965701 C48.0962892,13.3642706 47.991755,13.334386 47.8858052,13.3079226 C47.8853696,13.307822 47.8849341,13.3077213 47.8843896,13.3075201 C47.6697678,13.2538888 47.4499193,13.2127346 47.2254974,13.1842588 C47.2050261,13.1816426 47.184446,13.1794289 47.1639747,13.177014 C47.0772984,13.1669518 46.9900777,13.1589021 46.9022036,13.1528648 C46.8759611,13.1510537 46.8498276,13.14884 46.8235851,13.1473307 C46.7164376,13.141394 46.6087456,13.1373691 46.5000735,13.1373691 C46.3924904,13.1373691 46.2858873,13.1412934 46.1798286,13.1471294 C46.1544573,13.1485381 46.1291949,13.1507518 46.1038235,13.1524624 C46.0168206,13.158399 45.9303621,13.1662475 45.8445569,13.1761084 C45.8244123,13.1784227 45.8043766,13.1806364 45.7842319,13.1832525 C45.4519003,13.2248092 45.1293686,13.2949424 44.8192505,13.3908347 C44.8104304,13.3935515 44.8017192,13.3962683 44.793008,13.3990857 C44.6947894,13.4299765 44.5976597,13.4631816 44.5020545,13.4992041 C44.4941055,13.5022227 44.4860477,13.5049395 44.4780987,13.5079582 C44.3783557,13.5460937 44.2799193,13.5864429 44.1832251,13.6299114 C44.1622094,13.6393699 44.1417381,13.6498345 44.1208313,13.6594942 C44.0547351,13.6901837 43.9892924,13.7218795 43.9248296,13.7550846 C43.9059917,13.7647443 43.8863915,13.7730959 43.8676625,13.7829568 C42.8663118,12.9955934 42.2482533,11.8122844 42.1821571,10.5077265 C42.1089832,9.06521644 43.0240931,7.09092171 44.6927205,5.09106911 C45.5291031,4.08867758 46.3348877,3.33190317 46.9726553,2.81762661 C46.7920071,4.96720403 48.0031884,6.06689656 49.0107458,6.98164674 C49.9365269,7.82213825 50.7359959,8.54792123 50.8163566,10.1340182 C50.8898572,11.5839742 50.2697297,12.9365286 49.168636,13.8020748 Z" id="Shape"></path>
            </g>
        </g>
    </g>
</svg>